<svg width="18" height="15" viewBox="0 0 18 15" fill="none" xmlns="http://www.w3.org/2000/svg">
<path fill-rule="evenodd" clip-rule="evenodd" d="M5.71771 0.248959C6.04965 0.580905 6.04965 1.1191 5.71771 1.45104L2.90208 4.26667H12.5833C13.9404 4.26667 15.2418 4.80574 16.2014 5.7653C17.1609 6.72486 17.7 8.02631 17.7 9.38333C17.7 10.7404 17.1609 12.0418 16.2014 13.0014C15.2418 13.9609 13.9404 14.5 12.5833 14.5H11.5167C11.0472 14.5 10.6667 14.1194 10.6667 13.65C10.6667 13.1806 11.0472 12.8 11.5167 12.8H12.5833C13.4895 12.8 14.3585 12.44 14.9993 11.7993C15.64 11.1585 16 10.2895 16 9.38333C16 8.47718 15.64 7.60813 14.9993 6.96739C14.3585 6.32664 13.4895 5.96667 12.5833 5.96667H2.90208L5.71771 8.78229C6.04965 9.11424 6.04965 9.65243 5.71771 9.98438C5.38576 10.3163 4.84757 10.3163 4.51563 9.98438L0.248959 5.71771C-0.0829864 5.38576 -0.0829864 4.84757 0.248959 4.51563L4.51563 0.248959C4.84757 -0.0829864 5.38576 -0.0829864 5.71771 0.248959Z" fill="#556DF6"/>
</svg>
