<svg width="13" height="14" viewBox="0 0 13 14" fill="none" xmlns="http://www.w3.org/2000/svg">
<path fill-rule="evenodd" clip-rule="evenodd" d="M9.393 0.422103C9.36091 0.183728 9.15815 0 8.91281 0C8.64517 0 8.4282 0.218652 8.4282 0.488372V1.02831H4.17767V0.488372L4.17325 0.422103C4.14116 0.183728 3.9384 0 3.69306 0C3.42542 0 3.20845 0.218652 3.20845 0.488372V1.04044C1.22257 1.17722 0 2.46395 0 4.54005V10.4328C0 12.6611 1.37084 14 3.56738 14H9.03255C11.2317 14 12.5999 12.6835 12.5999 10.4821V4.54005C12.6063 2.4632 11.3876 1.17682 9.39743 1.04038V0.488372L9.393 0.422103ZM8.4282 2.00504V2.63121L8.43262 2.69747C8.46471 2.93585 8.66747 3.11958 8.91281 3.11958C9.18046 3.11958 9.39743 2.90093 9.39743 2.63121V2.01948C10.8454 2.13995 11.6353 3.0119 11.6307 4.53854V4.82139H0.969199V4.54003C0.969199 3.01436 1.76345 2.14056 3.20845 2.01957V2.63121L3.21287 2.69747C3.24496 2.93585 3.44772 3.11958 3.69306 3.11958C3.96071 3.11958 4.17767 2.90093 4.17767 2.63121V2.00504H8.4282ZM0.969199 5.79813V10.4328C0.969199 12.1146 1.89943 13.0232 3.56735 13.0232H9.03252C10.7062 13.0232 11.6307 12.1337 11.6307 10.4821L11.6307 5.79813H0.969199ZM9.66078 7.85283C9.66078 7.58311 9.44381 7.36446 9.17617 7.36446L9.10442 7.36892C8.86788 7.40125 8.68557 7.60559 8.68557 7.85283C8.68557 8.12255 8.90254 8.3412 9.17617 8.3412L9.24193 8.33674C9.47847 8.30441 9.66078 8.10007 9.66078 7.85283ZM6.30897 7.36446C6.57662 7.36446 6.79359 7.58311 6.79359 7.85283C6.79359 8.10007 6.61127 8.30441 6.37473 8.33674L6.30897 8.3412C6.03534 8.3412 5.81837 8.12255 5.81837 7.85283C5.81837 7.60559 6.00069 7.40125 6.23723 7.36892L6.30897 7.36446ZM3.92034 7.85283C3.92034 7.58311 3.70337 7.36446 3.43573 7.36446L3.36398 7.36892C3.12744 7.40125 2.94513 7.60559 2.94513 7.85283C2.94513 8.12255 3.1621 8.3412 3.42974 8.3412L3.50149 8.33674C3.73803 8.30441 3.92034 8.10007 3.92034 7.85283ZM9.17617 9.89522C9.44381 9.89522 9.66078 10.1139 9.66078 10.3836C9.66078 10.6308 9.47847 10.8352 9.24193 10.8675L9.17617 10.872C8.90254 10.872 8.68557 10.6533 8.68557 10.3836C8.68557 10.1364 8.86788 9.93202 9.10442 9.89968L9.17617 9.89522ZM6.79359 10.3836C6.79359 10.1139 6.57662 9.89522 6.30897 9.89522L6.23723 9.89968C6.00069 9.93202 5.81837 10.1364 5.81837 10.3836C5.81837 10.6533 6.03534 10.872 6.30897 10.872L6.37473 10.8675C6.61127 10.8352 6.79359 10.6308 6.79359 10.3836ZM3.43573 9.89522C3.70337 9.89522 3.92034 10.1139 3.92034 10.3836C3.92034 10.6308 3.73803 10.8352 3.50149 10.8675L3.42974 10.872C3.1621 10.872 2.94513 10.6533 2.94513 10.3836C2.94513 10.1364 3.12744 9.93202 3.36398 9.89968L3.43573 9.89522Z" fill="current"/>
</svg>
