<svg width="33" height="32" viewBox="0 0 33 32" fill="none" xmlns="http://www.w3.org/2000/svg">
<rect x="0.988281" y="0.5" width="30.9777" height="31" rx="15.4889" fill="white" stroke="#D8DEEB"/>
<path fill-rule="evenodd" clip-rule="evenodd" d="M14.5163 8.5H18.4357C19.2573 8.50574 19.9046 8.93294 20.28 9.67285C20.3339 9.7784 20.3981 9.9082 20.4754 10.0677L21.0111 11.1948C21.0405 11.2569 21.1025 11.2962 21.1874 11.2964L21.3635 11.3012C23.2878 11.4019 24.8036 12.9935 24.8036 14.9274V19.8688C24.8036 21.8738 23.1771 23.5 21.1711 23.5H11.7818C9.77505 23.5 8.14844 21.874 8.14844 19.8688V14.9274C8.14844 12.9217 9.77479 11.2962 11.7419 11.2975L11.8042 11.2948C11.8636 11.2871 11.9159 11.2493 11.9414 11.1953L12.3505 10.3314L12.6716 9.67368C13.0488 8.93245 13.6951 8.50573 14.5163 8.5ZM18.4322 9.74866L14.5259 9.74865C14.1867 9.75102 13.9576 9.90234 13.7859 10.2397C13.7358 10.3383 13.6744 10.4628 13.5995 10.6176L13.0717 11.7289C12.8634 12.1689 12.4451 12.4715 11.9245 12.5371L11.7826 12.5449C10.4655 12.5449 9.39844 13.6113 9.39844 14.9274V19.8688C9.39844 21.1843 10.4658 22.2513 11.7826 22.2513H21.1719C22.488 22.2513 23.5553 21.1842 23.5553 19.8688V14.9274C23.5553 13.6586 22.5607 12.6142 21.3154 12.5488L21.0456 12.5393C20.5446 12.4949 20.1005 12.1887 19.8826 11.7284L19.3009 10.507L19.1676 10.2392C18.9968 9.90252 18.7672 9.75102 18.4322 9.74866ZM13.2046 17.1073C13.1901 15.3146 14.6715 13.827 16.4797 13.829L16.6479 13.8335C18.3745 13.9234 19.7506 15.3594 19.7476 17.1092C19.7445 18.9091 18.2773 20.3767 16.4777 20.3788C14.675 20.3798 13.2036 18.9061 13.2046 17.1073ZM18.4993 17.107C18.5012 15.9904 17.5933 15.079 16.4792 15.0777L16.3464 15.082C15.2927 15.1506 14.446 16.0434 14.4546 17.1026C14.454 18.2172 15.3661 19.1308 16.4775 19.1301C17.5879 19.1288 18.4974 18.2191 18.4993 17.107ZM20.3098 15.0897C20.3988 15.1255 20.4783 15.1465 20.5588 15.1548L20.6399 15.1589L20.7226 15.1548C20.9138 15.1358 21.0931 15.0513 21.2297 14.9139C21.3876 14.7462 21.4727 14.5447 21.4727 14.3268C21.4727 14.2134 21.4495 14.101 21.4035 13.9975L21.3846 13.9489C21.3526 13.8803 21.2949 13.799 21.2265 13.7316C20.9981 13.5034 20.6327 13.4307 20.3255 13.5523C20.2219 13.598 20.1461 13.6498 20.0722 13.7142C19.9749 13.8089 19.9211 13.8959 19.8757 13.9991C19.8304 14.101 19.8072 14.2134 19.8072 14.3268C19.8072 14.5404 19.8934 14.7474 20.0423 14.9057C20.1251 14.9898 20.2108 15.0458 20.3098 15.0897Z" fill="#E4948F"/>
</svg>
