<svg width="18" height="18" viewBox="0 0 18 18" fill="none" xmlns="http://www.w3.org/2000/svg">
<path fill-rule="evenodd" clip-rule="evenodd" d="M12.6834 0.667969H5.57825C2.81908 0.667969 0.980469 2.68455 0.980469 5.57894V12.4237C0.980469 15.3208 2.81423 17.3346 5.57825 17.3346H12.6834C15.4474 17.3346 17.2812 15.3208 17.2812 12.4237V5.57894C17.2812 2.68185 15.4474 0.667969 12.6834 0.667969ZM5.57897 1.83057H12.6841C14.8012 1.83057 16.1447 3.306 16.1447 5.57875V12.4235C16.1447 14.6962 14.8012 16.1716 12.6841 16.1716H5.57897C3.46193 16.1716 2.11844 14.6962 2.11844 12.4235V5.57875C2.11844 3.30902 3.46642 1.83057 5.57897 1.83057ZM9.72353 4.98395C9.68585 4.70017 9.44778 4.48145 9.1597 4.48145C8.84544 4.48145 8.59068 4.74174 8.59068 5.06284V12.9254L8.59587 13.0043C8.63355 13.2881 8.87163 13.5068 9.1597 13.5068C9.47397 13.5068 9.72873 13.2465 9.72873 12.9254V5.06284L9.72353 4.98395ZM6.18574 7.52838C6.14807 7.2446 5.90999 7.02588 5.62191 7.02588C5.30765 7.02588 5.05289 7.28618 5.05289 7.60727V12.9252L5.05808 13.0041C5.09576 13.2879 5.33384 13.5066 5.62191 13.5066C5.93618 13.5066 6.19094 13.2463 6.19094 12.9252V7.60727L6.18574 7.52838ZM12.6402 9.83594C12.9283 9.83594 13.1663 10.0547 13.204 10.3384L13.2092 10.4173V12.9251C13.2092 13.2462 12.9544 13.5065 12.6402 13.5065C12.3521 13.5065 12.114 13.2878 12.0763 13.004L12.0712 12.9251V10.4173C12.0712 10.0962 12.3259 9.83594 12.6402 9.83594Z" fill="#3B3F45"/>
</svg>