<svg width="14" height="14" viewBox="0 0 14 14" fill="none" xmlns="http://www.w3.org/2000/svg">
    <path fill-rule="evenodd" clip-rule="evenodd" d="M6.9987 0.333984C3.31656 0.333984 0.332031 3.31851 0.332031 7.00065C0.332031 10.6828 3.31656 13.6673 6.9987 13.6673C10.6808 13.6673 13.6654 10.6828 13.6654 7.00065C13.6654 3.31851 10.6808 0.333984 6.9987 0.333984ZM6.9987 1.33398C10.1286 1.33398 12.6654 3.87079 12.6654 7.00065C12.6654 10.1305 10.1286 12.6673 6.9987 12.6673C3.86884 12.6673 1.33203 10.1305 1.33203 7.00065C1.33203 3.87079 3.86884 1.33398 6.9987 1.33398ZM7.26854 4.16373C7.23543 3.91967 7.02623 3.73157 6.7731 3.73157C6.49696 3.73157 6.2731 3.95543 6.2731 4.23157V7.46291L6.27867 7.5374C6.30076 7.6841 6.38733 7.81498 6.51694 7.8923L9.03028 9.39164L9.09088 9.42248C9.31743 9.51907 9.58615 9.43579 9.71583 9.2184L9.74667 9.15779C9.84327 8.93124 9.75998 8.66252 9.54259 8.53284L7.27283 7.17831L7.2731 4.23157L7.26854 4.16373Z" fill="#727A88"/>
</svg>
