<svg width="14" height="14" viewBox="0 0 14 14" fill="none" xmlns="http://www.w3.org/2000/svg">
<path d="M7 0C3.13375 0 0 3.13375 0 7C0 10.8662 3.13375 14 7 14C10.8662 14 14 10.8662 14 7C14 3.13375 10.8662 0 7 0Z" fill="#444B55"/>
<path d="M6.76328 3.56836C7.02907 3.56836 7.24873 3.76587 7.28349 4.02212L7.28828 4.09336L7.288 7.18743L9.67125 8.60969C9.89951 8.74586 9.98696 9.02801 9.88553 9.26589L9.85315 9.32952C9.71698 9.55778 9.43483 9.64524 9.19695 9.54381L9.13332 9.51143L6.49432 7.93713C6.35822 7.85594 6.26732 7.71852 6.24413 7.56448L6.23828 7.48626V4.09336C6.23828 3.80341 6.47333 3.56836 6.76328 3.56836Z" fill="#C5CAD3"/>
</svg>
