<svg width="13" height="14" viewBox="0 0 13 14" fill="none" xmlns="http://www.w3.org/2000/svg">
<path d="M7.69102 7.06972L12.753 2.0613C13.0824 1.73552 13.0824 1.20878 12.753 0.883005C12.4237 0.557228 11.8913 0.557228 11.562 0.883005L6.49994 5.89143L1.43799 0.883005C1.10856 0.557228 0.576337 0.557228 0.247067 0.883005C-0.0823558 1.20878 -0.0823558 1.73552 0.247067 2.0613L5.30902 7.06972L0.247067 12.0781C-0.0823558 12.4039 -0.0823558 12.9307 0.247067 13.2564C0.411162 13.4189 0.626922 13.5006 0.842528 13.5006C1.05813 13.5006 1.27374 13.4189 1.43799 13.2564L6.49994 8.24801L11.562 13.2564C11.7263 13.4189 11.9419 13.5006 12.1575 13.5006C12.3731 13.5006 12.5887 13.4189 12.753 13.2564C13.0824 12.9307 13.0824 12.4039 12.753 12.0781L7.69102 7.06972Z" fill="#B0B7C2"/>
</svg>
