<svg width="14" height="14" viewBox="0 0 14 14" fill="none" xmlns="http://www.w3.org/2000/svg">
<path fill-rule="evenodd" clip-rule="evenodd" d="M9.80346 0.97327C9.60273 0.382392 9.08131 0 8.49081 0H5.60124L5.49139 0.00443204C4.91054 0.0514452 4.41487 0.468276 4.26223 1.05373L4.0889 1.93769L4.06859 2.0155C3.98919 2.25654 3.77343 2.42704 3.52286 2.44141H1.25807L1.1886 2.4462C0.938701 2.48096 0.746094 2.70063 0.746094 2.96643C0.746094 3.25639 0.975312 3.49144 1.25807 3.49144H3.45691C3.46736 3.4921 3.47789 3.49243 3.4885 3.49243C3.50732 3.49243 3.52608 3.4921 3.54477 3.49144H10.5473C10.566 3.4921 10.5847 3.49243 10.6036 3.49243C10.6142 3.49243 10.6247 3.4921 10.6351 3.49144H12.8341L12.9036 3.48665C13.1535 3.45189 13.3461 3.23222 13.3461 2.96643C13.3461 2.67647 13.1169 2.44141 12.8341 2.44141H10.5886L10.5251 2.43724C10.2679 2.40324 10.0552 2.2041 10.0031 1.93748L9.83728 1.08646L9.80346 0.97327ZM9.08574 2.44141C9.0626 2.38244 9.04256 2.3217 9.02587 2.25938L8.99906 2.14346L8.84063 1.32496C8.8036 1.18294 8.68924 1.07897 8.55125 1.05519L8.49081 1.05004H5.60124C5.45759 1.05004 5.3299 1.13626 5.27686 1.24462L5.25887 1.29223L5.09295 2.14367C5.07278 2.24698 5.04359 2.34649 5.00634 2.44141H9.08574ZM11.9318 4.70485C12.1901 4.72621 12.3882 4.94074 12.4019 5.19897L12.3952 5.34295L12.1751 8.03882L11.9441 10.6697C11.8953 11.1949 11.8515 11.6379 11.8138 11.9866C11.6826 13.2019 10.8937 13.9534 9.7045 13.9756C7.85144 14.0098 6.07021 14.0095 4.34048 13.9721C3.18566 13.9478 2.40844 13.1882 2.27956 11.9915L2.19049 11.1098L2.03483 9.39965L1.87539 7.52298L1.69308 5.27024C1.67042 4.98122 1.88053 4.72808 2.16238 4.70484C2.42074 4.68354 2.64969 4.86282 2.70351 5.11547L2.72445 5.32194L2.89564 7.43383L3.08256 9.62285C3.1664 10.5705 3.23911 11.3374 3.2973 11.8761C3.37075 12.558 3.72984 12.909 4.36176 12.9223C6.07797 12.9594 7.84591 12.9597 9.68595 12.9257C10.3563 12.9132 10.7211 12.5657 10.7961 11.8709L10.8848 10.9939C10.9107 10.7237 10.9385 10.4253 10.9678 10.1012L11.1549 7.94839L11.3803 5.18598C11.4011 4.92104 11.6103 4.71796 11.8621 4.7039L11.9318 4.70485Z" fill="#3B3F45"/>
</svg>
