<svg width="18" height="18" viewBox="0 0 18 18" fill="none" xmlns="http://www.w3.org/2000/svg">
<path fill-rule="evenodd" clip-rule="evenodd" d="M8.73333 0C3.91005 0 0 4.02944 0 9C0 13.9706 3.91005 18 8.73333 18C13.5566 18 17.4667 13.9706 17.4667 9C17.4667 4.02944 13.5566 0 8.73333 0ZM8.7335 1.30292C12.8585 1.30292 16.2025 4.749 16.2025 8.99995C16.2025 13.2509 12.8585 16.697 8.7335 16.697C4.6085 16.697 1.26453 13.2509 1.26453 8.99995C1.26453 4.749 4.6085 1.30292 8.7335 1.30292ZM11.361 5.47615L7.07122 6.85962C6.87346 6.92339 6.71859 7.08299 6.6567 7.28679L5.31423 11.7075C5.16183 12.2094 5.6194 12.6809 6.10636 12.5238L10.3961 11.1404C10.5939 11.0766 10.7487 10.917 10.8106 10.7132L12.1531 6.29247C12.3055 5.79064 11.8479 5.3191 11.361 5.47615ZM10.5856 7.09064L9.70219 9.99799L6.88098 10.9083L7.76435 8.00098L10.5856 7.09064Z" fill="#FF5630"/>
</svg>
