<svg width="15" height="17" viewBox="0 0 15 17" fill="none" xmlns="http://www.w3.org/2000/svg">
<path fill-rule="evenodd" clip-rule="evenodd" d="M4.28167 16.6667C3.93833 16.6667 3.6125 16.64 3.30583 16.5875L3.12417 16.5533C1.14833 16.1425 0 14.6292 0 12.3258V4.34083C0 4.0625 0.0166667 3.79583 0.05 3.54083C0.340833 1.30333 1.87833 0 4.28167 0H10.7192C13.3825 0 14.975 1.6 15 4.27667V4.34083V12.3258C15 15.04 13.4033 16.6667 10.7192 16.6667H4.28167ZM4.28166 1.21417C2.235 1.21417 1.1975 2.26667 1.1975 4.34083V12.3258C1.1975 14.4 2.235 15.4525 4.28166 15.4525H10.7117C12.7575 15.4525 13.7883 14.4 13.7883 12.3258V4.34083C13.7883 2.26667 12.7575 1.21417 10.7117 1.21417H4.28166ZM11.0883 11.8617C11.0883 11.5283 10.8225 11.2583 10.4942 11.2583H4.485C4.15667 11.2583 3.89 11.5283 3.89 11.8617C3.89 12.195 4.15667 12.465 4.485 12.465H10.4942C10.8225 12.465 11.0883 12.195 11.0883 11.8617ZM10.4942 7.72583C10.7233 7.70083 10.9475 7.81083 11.07 8.00833C11.1925 8.2075 11.1925 8.45917 11.07 8.65833C10.9475 8.85583 10.7233 8.96583 10.4942 8.94083H4.485C4.18 8.90583 3.94916 8.645 3.94916 8.33333C3.94916 8.02167 4.18 7.76 4.485 7.72583H10.4942ZM7.31416 4.80917C7.31416 4.4975 7.08333 4.23583 6.77833 4.20167H4.4925C4.18667 4.23583 3.95583 4.4975 3.95583 4.80917C3.95583 5.12 4.18667 5.38167 4.4925 5.41583H6.77833C7.08333 5.38167 7.31416 5.12 7.31416 4.80917Z" fill="#3B3F45"/>
</svg>
