<svg width="16" height="15" viewBox="0 0 16 15" fill="none" xmlns="http://www.w3.org/2000/svg">
<path fill-rule="evenodd" clip-rule="evenodd" d="M1.55332 8.73084L9.62878 0.768341C10.6678 -0.256114 12.353 -0.256114 13.392 0.768341L14.4706 1.83188C15.5096 2.85633 15.5096 4.51796 14.4706 5.54241L6.36327 13.5363C5.89968 13.9934 5.27115 14.2499 4.61511 14.2499H1.29488C0.986439 14.2499 0.738581 13.9994 0.746268 13.6953L0.829787 10.392C0.846392 9.76764 1.10549 9.17241 1.55332 8.73084ZM13.6927 2.59694L12.614 1.5334C12.0037 0.931575 11.0134 0.931575 10.403 1.5334L9.77759 2.1501L13.0676 5.39336L13.6927 4.777C14.303 4.17517 14.303 3.19876 13.6927 2.59694ZM2.32758 9.4959L9.0015 2.91534L12.2915 6.1586L5.58534 12.7709L5.49616 12.8514C5.24985 13.0549 4.93778 13.1675 4.61327 13.1675L1.85547 13.1671L1.92515 10.4195C1.93438 10.0728 2.07864 9.74135 2.32758 9.4959ZM15.7448 13.7091C15.7448 13.4102 15.4991 13.168 15.196 13.168H9.47066L9.39619 13.1729C9.12833 13.2087 8.92188 13.4351 8.92188 13.7091C8.92188 14.0079 9.16757 14.2502 9.47066 14.2502H15.196L15.2705 14.2452C15.5384 14.2094 15.7448 13.983 15.7448 13.7091Z" fill="#3B3F45"/>
</svg>
