<svg width="17" height="14" viewBox="0 0 17 14" fill="none" xmlns="http://www.w3.org/2000/svg">
<path fill-rule="evenodd" clip-rule="evenodd" d="M8.57351 0.00401573L8.335 0C4.88423 0 1.77439 2.4359 0.0507624 6.42153C-0.0169208 6.57804 -0.0169208 6.7553 0.0507624 6.9118L0.170199 7.18066C1.87198 10.9109 4.81287 13.2203 8.09316 13.3293L8.33167 13.3333C11.7824 13.3333 14.8923 10.8974 16.6159 6.9118C16.6844 6.75332 16.6835 6.57366 16.6134 6.41587L16.4974 6.15469C14.7914 2.41743 11.8493 0.112888 8.57351 0.00401573ZM8.34083 1.24118L8.53995 1.24547L8.76246 1.25704C11.4268 1.4457 13.8771 3.42127 15.3575 6.66592L15.3498 6.68594C13.8323 10.0004 11.2974 11.9877 8.54907 12.0875L8.33667 12.0907L8.12244 12.0878L7.90051 12.0762C5.31893 11.8934 2.93864 10.0287 1.44929 6.96641L1.30833 6.66592L1.43881 6.38849C3.00931 3.14429 5.57623 1.24189 8.34083 1.24118ZM8.33292 3.42789C6.53258 3.42789 5.07375 4.87761 5.07375 6.66683C5.07375 8.45539 6.53274 9.90495 8.33292 9.90495C10.1332 9.90495 11.5929 8.45529 11.5929 6.66683C11.5929 4.87771 10.1334 3.42789 8.33292 3.42789ZM8.33292 4.66981C9.44306 4.66981 10.3429 5.56367 10.3429 6.66683C10.3429 7.76927 9.44296 8.66302 8.33292 8.66302C7.22309 8.66302 6.32375 7.76949 6.32375 6.66683C6.32375 5.56345 7.223 4.66981 8.33292 4.66981Z" fill="#3B3F45"/>
</svg>
