<svg width="13" height="14" viewBox="0 0 13 14" fill="none" xmlns="http://www.w3.org/2000/svg">
<path fill-rule="evenodd" clip-rule="evenodd" d="M9.05736 0.97327C8.85664 0.382392 8.33522 0 7.74472 0H4.85514L4.7453 0.00443204C4.16444 0.0514452 3.66878 0.468276 3.51613 1.05373L3.3428 1.93769L3.32249 2.0155C3.2431 2.25654 3.02734 2.42704 2.77676 2.44141H0.511973L0.442501 2.4462C0.192607 2.48096 0 2.70063 0 2.96643C0 3.25639 0.229218 3.49144 0.511973 3.49144H2.71082C2.72126 3.4921 2.7318 3.49243 2.7424 3.49243C2.76122 3.49243 2.77998 3.4921 2.79867 3.49144H9.80119C9.81988 3.4921 9.83864 3.49243 9.85746 3.49243C9.86807 3.49243 9.8786 3.4921 9.88905 3.49144H12.088L12.1575 3.48665C12.4074 3.45189 12.6 3.23222 12.6 2.96643C12.6 2.67647 12.3708 2.44141 12.088 2.44141H9.84249L9.77905 2.43724C9.52177 2.40324 9.30909 2.2041 9.25702 1.93748L9.09118 1.08646L9.05736 0.97327ZM8.33965 2.44141C8.3165 2.38244 8.29647 2.3217 8.27977 2.25938L8.25297 2.14346L8.09454 1.32496C8.05751 1.18294 7.94315 1.07897 7.80515 1.05519L7.74472 1.05004H4.85514C4.71149 1.05004 4.58381 1.13626 4.53077 1.24462L4.51278 1.29223L4.34686 2.14367C4.32668 2.24698 4.2975 2.34649 4.26024 2.44141H8.33965ZM11.1857 4.70485C11.444 4.72621 11.6421 4.94074 11.6558 5.19897L11.6491 5.34295L11.429 8.03882L11.198 10.6697C11.1492 11.1949 11.1054 11.6379 11.0677 11.9866C10.9365 13.2019 10.1476 13.9534 8.95841 13.9756C7.10534 14.0098 5.32412 14.0095 3.59439 13.9721C2.43957 13.9478 1.66235 13.1882 1.53347 11.9915L1.44439 11.1098L1.28874 9.39965L1.12929 7.52298L0.946986 5.27024C0.924327 4.98122 1.13444 4.72808 1.41629 4.70484C1.67464 4.68354 1.9036 4.86282 1.95741 5.11547L1.97836 5.32194L2.14954 7.43383L2.33646 9.62285C2.4203 10.5705 2.49302 11.3374 2.55121 11.8761C2.62465 12.558 2.98375 12.909 3.61566 12.9223C5.33188 12.9594 7.09982 12.9597 8.93985 12.9257C9.61018 12.9132 9.97498 12.5657 10.05 11.8709L10.1387 10.9939C10.1646 10.7237 10.1924 10.4253 10.2217 10.1012L10.4088 7.94839L10.6342 5.18598C10.655 4.92104 10.8642 4.71796 11.116 4.7039L11.1857 4.70485Z" fill="#3B3F45"/>
</svg>
