<svg width="16" height="16" viewBox="0 0 16 16" fill="none" xmlns="http://www.w3.org/2000/svg">
    <path fill-rule="evenodd" clip-rule="evenodd" d="M8.00182 2.46654C4.94585 2.46654 2.46849 4.94389 2.46849 7.99987C2.46849 11.0558 4.94585 13.5332 8.00182 13.5332C11.0578 13.5332 13.5352 11.0558 13.5352 7.99987C13.5352 4.94389 11.0578 2.46654 8.00182 2.46654ZM1.53516 7.99987C1.53516 4.42843 4.43038 1.5332 8.00182 1.5332C11.5733 1.5332 14.4685 4.42843 14.4685 7.99987C14.4685 11.5713 11.5733 14.4665 8.00182 14.4665C4.43038 14.4665 1.53516 11.5713 1.53516 7.99987Z" fill="#727A88"/>
    <path fill-rule="evenodd" clip-rule="evenodd" d="M1.93359 5.99987C1.93359 5.74214 2.14253 5.5332 2.40026 5.5332H13.6003C13.858 5.5332 14.0669 5.74214 14.0669 5.99987C14.0669 6.2576 13.858 6.46654 13.6003 6.46654H2.40026C2.14253 6.46654 1.93359 6.2576 1.93359 5.99987Z" fill="#727A88"/>
    <path fill-rule="evenodd" clip-rule="evenodd" d="M1.93359 9.99987C1.93359 9.74214 2.14253 9.5332 2.40026 9.5332H13.6003C13.858 9.5332 14.0669 9.74214 14.0669 9.99987C14.0669 10.2576 13.858 10.4665 13.6003 10.4665H2.40026C2.14253 10.4665 1.93359 10.2576 1.93359 9.99987Z" fill="#727A88"/>
    <path fill-rule="evenodd" clip-rule="evenodd" d="M7.91272 1.60403C8.13138 1.74048 8.19802 2.02834 8.06157 2.24699C6.98471 3.97263 6.4138 5.96586 6.4138 7.99993C6.4138 10.034 6.98471 12.0272 8.06157 13.7529C8.19802 13.9715 8.13138 14.2594 7.91272 14.3958C7.69407 14.5323 7.40621 14.4656 7.26976 14.247C6.10041 12.3731 5.48047 10.2087 5.48047 7.99993C5.48047 5.79116 6.10041 3.62672 7.26976 1.75287C7.40621 1.53422 7.69407 1.46758 7.91272 1.60403Z" fill="#727A88"/>
    <path fill-rule="evenodd" clip-rule="evenodd" d="M8.08686 1.60403C8.30551 1.46758 8.59337 1.53422 8.72982 1.75287C9.89917 3.62672 10.5191 5.79116 10.5191 7.99993C10.5191 10.2087 9.89917 12.3731 8.72982 14.247C8.59337 14.4656 8.30551 14.5323 8.08686 14.3958C7.86821 14.2594 7.80157 13.9715 7.93801 13.7529C9.01487 12.0272 9.58578 10.034 9.58578 7.99993C9.58578 5.96586 9.01487 3.97263 7.93801 2.24699C7.80157 2.02834 7.86821 1.74048 8.08686 1.60403Z" fill="#727A88"/>
</svg>