<svg width="15" height="14" viewBox="0 0 15 14" fill="none" xmlns="http://www.w3.org/2000/svg">
<path fill-rule="evenodd" clip-rule="evenodd" d="M5.57564 0C3.48385 0 1.8047 1.67942 1.8047 3.77094C1.8047 5.86306 3.48372 7.54262 5.57564 7.54262C7.66766 7.54262 9.34731 5.86296 9.34731 3.77094C9.34731 1.67952 7.66753 0 5.57564 0ZM5.57565 1.10176C7.05909 1.10176 8.24557 2.28804 8.24557 3.77094C8.24557 5.25448 7.05919 6.44086 5.57565 6.44086C4.09229 6.44086 2.90646 5.25466 2.90646 3.77094C2.90646 2.28786 4.09238 1.10176 5.57565 1.10176ZM13.2699 3.75817C13.2699 2.1169 11.9389 0.785633 10.2974 0.785633C9.99315 0.785633 9.74652 1.03227 9.74652 1.33651C9.74652 1.64075 9.99315 1.88739 10.2974 1.88739C11.3304 1.88739 12.1682 2.72533 12.1682 3.75817C12.1682 4.79146 11.3307 5.62895 10.2974 5.62895C9.99315 5.62895 9.74652 5.87558 9.74652 6.17982C9.74652 6.48407 9.99315 6.7307 10.2974 6.7307C11.9392 6.7307 13.2699 5.39994 13.2699 3.75817ZM12.7062 8.4424C12.2988 8.35207 11.8748 8.29095 11.4484 8.26194C11.1448 8.2413 10.882 8.47063 10.8614 8.77417C10.8408 9.07771 11.0701 9.34051 11.3736 9.36116C11.745 9.38642 12.1143 9.43967 12.4796 9.52054C13.05 9.63414 13.4279 9.82284 13.53 10.0372C13.607 10.1992 13.607 10.3891 13.5298 10.5516C13.4283 10.7652 13.0524 10.9535 12.4877 11.0697C12.1897 11.131 11.9978 11.4223 12.0591 11.7203C12.1204 12.0183 12.4117 12.2101 12.7097 12.1489C13.5873 11.9684 14.2293 11.6467 14.5249 11.0245C14.7443 10.5628 14.7443 10.0255 14.5248 9.56371C14.2276 8.94002 13.5788 8.61598 12.7062 8.4424ZM0 11.3984C0 9.47066 2.02546 8.7821 5.57561 8.7821L5.8105 8.78311C9.22184 8.8128 11.152 9.50179 11.152 11.3837C11.152 13.2258 9.30212 13.9364 6.03993 13.9959L5.57561 14C2.01743 14 0 13.3236 0 11.3984ZM10.0502 11.3837C10.0502 10.3938 8.52937 9.88385 5.57561 9.88385C2.62486 9.88385 1.10176 10.4016 1.10176 11.3984C1.10176 12.3888 2.6212 12.8982 5.57561 12.8982C8.52658 12.8982 10.0502 12.3804 10.0502 11.3837Z" fill="#C5CAD3"/>
</svg>
