<svg width="24" height="24" viewBox="0 0 24 24" fill="none" xmlns="http://www.w3.org/2000/svg">
<path fill-rule="evenodd" clip-rule="evenodd" d="M3.14988 3.25265C2.311 4.15231 1.80361 5.46772 1.80361 7.0969V16.9019C1.80361 18.5323 2.30875 19.8479 3.1459 20.7473C3.97631 21.6395 5.2005 22.1954 6.79359 22.1954H17.1944C18.7877 22.1954 20.0154 21.6393 20.849 20.7464C21.689 19.8465 22.1964 18.5311 22.1964 16.9019V7.0969C22.1964 5.46774 21.689 4.15263 20.8491 3.25313C20.0155 2.3605 18.7878 1.8046 17.1944 1.8046H6.79359C5.20704 1.8046 3.9823 2.35991 3.14988 3.25265ZM1.83109 2.0216C3.03975 0.725361 4.7609 0 6.79359 0H17.1944C19.2322 0 20.9564 0.724771 22.167 2.02112C23.3711 3.3106 24 5.09279 24 7.0969V16.9019C24 18.906 23.3711 20.6884 22.167 21.9782C20.9566 23.2748 19.2324 24 17.1944 24H6.79359C4.75541 24 3.03371 23.2747 1.82604 21.9772C0.625119 20.687 0 18.9047 0 16.9019V7.0969C0 5.09281 0.628885 3.31092 1.83109 2.0216ZM16.9099 13.6263C16.4419 13.1435 15.6581 13.1752 15.2302 13.6963L12.5503 16.9575C11.5594 18.1646 9.74035 18.2457 8.64696 17.1297L7.57741 16.0378C7.2649 15.7133 6.74652 15.716 6.4384 16.0417L4.59953 17.9826C4.2569 18.3443 3.68611 18.3596 3.32465 18.0167C2.96318 17.6739 2.94793 17.1028 3.29056 16.7411L5.12865 14.801C6.14466 13.7277 7.84852 13.7219 8.87327 14.7826L9.93493 15.8664C10.277 16.2156 10.8461 16.1905 11.1563 15.8125L13.8366 12.5507C14.9478 11.1974 16.9872 11.1136 18.2049 12.3703L20.7012 14.9474C21.0479 15.3052 21.0389 15.8764 20.6813 16.2233C20.3236 16.5701 19.7527 16.5611 19.4061 16.2033L16.9099 13.6263ZM6.68178 8.58206C6.68178 7.91515 7.22259 7.37418 7.88779 7.37418C8.55367 7.37418 9.09501 7.91582 9.09501 8.58206C9.09501 9.2483 8.55367 9.78994 7.88779 9.78994C7.22259 9.78994 6.68178 9.24897 6.68178 8.58206ZM7.88779 5.56958C6.22514 5.56958 4.87817 6.91984 4.87817 8.58206C4.87817 10.2443 6.22514 11.5945 7.88779 11.5945C9.54977 11.5945 10.8986 10.245 10.8986 8.58206C10.8986 6.91917 9.54977 5.56958 7.88779 5.56958Z" fill="#E4948F"/>
</svg>
