<svg width="21" height="22" viewBox="0 0 21 22" fill="none" xmlns="http://www.w3.org/2000/svg">
<path fill-rule="evenodd" clip-rule="evenodd" d="M8.34744 3.44849C8.46057 3.03366 8.73063 2.6935 8.98776 2.54229C9.10936 2.47078 9.19863 2.45767 9.25235 2.46163C9.2951 2.46478 9.36477 2.48098 9.46099 2.57719C9.80622 2.92243 10.0002 3.39067 10.0002 3.87891V9.06073C10.0002 9.47495 10.336 9.81073 10.7502 9.81073H17.2275C17.4928 9.81075 17.7551 9.86815 17.9962 9.97899C18.2374 10.0898 18.4517 10.2515 18.6245 10.453C18.7973 10.6544 18.9245 10.8908 18.9974 11.146C19.0703 11.4012 19.0872 11.6692 19.0468 11.9315L18.1167 17.9769C18.0499 18.4112 17.83 18.8073 17.4966 19.0936C17.1633 19.3799 16.7385 19.5375 16.2991 19.538H6.31836V10.8884L8.34744 3.44849ZM10.5216 1.51653C10.1931 1.18799 9.79399 0.997472 9.36259 0.965682C8.94216 0.934701 8.55193 1.05844 8.22737 1.2493C7.59218 1.62285 7.10326 2.3096 6.90029 3.05382L4.99551 10.038H3.25C1.73122 10.038 0.5 11.2692 0.5 12.788V18.288C0.5 19.8068 1.73122 21.038 3.25 21.038H5.56818C5.56824 21.038 5.5683 21.038 5.56836 21.038H16.3007C17.0981 21.0372 17.869 20.7511 18.474 20.2315C19.0789 19.712 19.4781 18.9931 19.5993 18.2049L20.5294 12.1595C20.6026 11.6834 20.572 11.1971 20.4397 10.734C20.3074 10.2709 20.0766 9.84182 19.763 9.47626C19.4493 9.1107 19.0604 8.81727 18.6227 8.6161C18.1851 8.41492 17.7091 8.31075 17.2275 8.31073H11.5002V3.87891C11.5002 2.99285 11.1482 2.14308 10.5216 1.51653ZM4.81836 19.538V11.538H3.25C2.55964 11.538 2 12.0976 2 12.788V18.288C2 18.9784 2.55964 19.538 3.25 19.538H4.81836Z" fill="#727A88"/>
</svg>
