<svg width="18" height="14" viewBox="0 0 18 14" fill="none" xmlns="http://www.w3.org/2000/svg">
<path fill-rule="evenodd" clip-rule="evenodd" d="M15.6774 0C14.3967 0 13.3548 1.04186 13.3548 2.3226C13.3548 3.02613 13.6692 3.65758 14.1649 4.08385L12.2262 7.75286C12.1518 7.74563 12.0763 7.74194 12 7.74194C11.6063 7.74194 11.2351 7.84042 10.9099 8.01405L8.14505 5.70993C8.37979 5.34712 8.51618 4.91501 8.51618 4.45163C8.51618 3.17088 7.47429 2.12903 6.19358 2.12903C4.91287 2.12903 3.87098 3.17088 3.87098 4.45163C3.87098 5.12482 4.15883 5.73201 4.61791 6.15659L2.8722 8.77531C2.69595 8.73239 2.51188 8.70963 2.3226 8.70963C1.04186 8.70963 0 9.75152 0 11.0322C0 12.3129 1.04186 13.3548 2.3226 13.3548C3.60334 13.3548 4.6452 12.313 4.6452 11.0322C4.6452 10.3596 4.35781 9.75283 3.89937 9.3283L5.64552 6.70892C5.8213 6.7516 6.00485 6.77422 6.19358 6.77422C6.58683 6.77422 6.95756 6.676 7.28253 6.50279L10.0479 8.80735C9.81356 9.16993 9.67745 9.60163 9.67745 10.0645C9.67745 11.3452 10.7193 12.3871 12 12.3871C13.2808 12.3871 14.3226 11.3453 14.3226 10.0645C14.3226 9.27608 13.9278 8.57816 13.3254 8.15813L15.2069 4.5973C15.3589 4.6287 15.5163 4.6452 15.6774 4.6452C16.9582 4.6452 18 3.60327 18 2.32256C18 1.04186 16.9582 0 15.6774 0ZM15.6774 3.48384C15.037 3.48384 14.5162 2.963 14.5162 2.32256C14.5162 1.68212 15.037 1.16128 15.6774 1.16128C16.3179 1.16128 16.8387 1.68212 16.8387 2.32256C16.8387 2.963 16.3179 3.48384 15.6774 3.48384ZM6.19358 5.61287C5.55314 5.61287 5.0323 5.09203 5.0323 4.45159C5.0323 3.81115 5.55314 3.29031 6.19358 3.29031C6.83402 3.29031 7.35486 3.81115 7.35486 4.45159C7.35486 5.09203 6.83402 5.61287 6.19358 5.61287ZM2.3226 12.1935C1.68216 12.1935 1.16132 11.6727 1.16132 11.0322C1.16132 10.3918 1.68216 9.87095 2.3226 9.87095C2.96304 9.87095 3.48388 10.3918 3.48388 11.0322C3.48388 11.6727 2.96304 12.1935 2.3226 12.1935ZM10.8388 10.0645C10.8388 10.7049 11.3596 11.2258 12 11.2258C12.6405 11.2258 13.1614 10.7049 13.1613 10.0645C13.1613 9.42406 12.6405 8.90322 12 8.90322C11.3596 8.90322 10.8388 9.42406 10.8388 10.0645Z" fill="current"/>
</svg>
