<svg width="16" height="16" viewBox="0 0 16 16" fill="none" xmlns="http://www.w3.org/2000/svg">
    <path fill-rule="evenodd" clip-rule="evenodd" d="M8.0179 1.33402C4.94521 1.32358 2.43543 3.76822 2.33512 6.82822L2.33203 7.01815C2.3831 8.51803 2.89341 9.94778 3.79222 11.1257L4.00331 11.4012C4.86123 12.4921 5.88077 13.4495 7.02555 14.2387L7.30118 14.4243L7.34139 14.4558C7.73376 14.7378 8.26354 14.7378 8.65591 14.4558L8.68938 14.4283C9.59774 13.8392 10.4354 13.1471 11.1857 12.3655C12.7111 10.7508 13.6305 8.94148 13.6652 7.10397L13.6653 7.03575C13.6757 3.95527 11.2386 1.43776 8.188 1.33711L8.0179 1.33402ZM8.01447 2.34563C10.5335 2.35424 12.5787 4.36693 12.6546 6.87339L12.6568 7.09439C12.6276 8.63494 11.821 10.2223 10.4564 11.6667C9.76065 12.3915 8.98053 13.0357 8.1344 13.5836L8.07801 13.626C8.03244 13.6656 7.96485 13.6656 7.91929 13.626L7.86448 13.5846C6.60401 12.7617 5.49774 11.7227 4.59627 10.5151C3.87015 9.56345 3.43987 8.42558 3.35326 7.23858L3.34053 7.00056C3.34909 4.47546 5.35558 2.42397 7.85433 2.3478L8.01447 2.34563ZM7.99865 4.93486C6.80639 4.93486 5.83987 5.90436 5.83987 7.1003C5.83987 8.29625 6.80639 9.26575 7.99865 9.26575C9.19091 9.26575 10.1574 8.29625 10.1574 7.1003C10.1574 5.90436 9.19091 4.93486 7.99865 4.93486ZM7.99865 5.94647C8.63393 5.94647 9.14893 6.46305 9.14893 7.10029C9.14893 7.73754 8.63393 8.25412 7.99865 8.25412C7.36337 8.25412 6.84837 7.73754 6.84837 7.10029C6.84837 6.46305 7.36337 5.94647 7.99865 5.94647Z" fill="#727A88"/>
</svg>
