<svg width="15" height="16" viewBox="0 0 15 16" fill="none" xmlns="http://www.w3.org/2000/svg">
<path d="M13.0312 10.2925V9.46875C13.0312 8.43488 12.1901 7.59375 11.1562 7.59375C10.1224 7.59375 9.28125 8.43488 9.28125 9.46875V10.2819C8.28431 10.6108 7.5625 11.5506 7.5625 12.6562V13.5C7.5625 14.8785 8.684 16 10.0625 16H12.2188C13.5972 16 14.7188 14.8785 14.7188 13.5V12.6562C14.7188 11.5622 14.012 10.6306 13.0312 10.2925ZM11.1562 8.84375C11.5009 8.84375 11.7812 9.12412 11.7812 9.46875V10.1562H10.5312V9.46875C10.5312 9.12412 10.8116 8.84375 11.1562 8.84375ZM13.4688 13.5C13.4688 14.1892 12.908 14.75 12.2188 14.75H10.0625C9.37325 14.75 8.8125 14.1892 8.8125 13.5V12.6562C8.8125 11.967 9.37325 11.4062 10.0625 11.4062H12.2188C12.908 11.4062 13.4688 11.967 13.4688 12.6562V13.5ZM6.09375 8.4375C8.41997 8.4375 10.3125 6.54497 10.3125 4.21875C10.3125 1.89253 8.41997 0 6.09375 0C3.76753 0 1.875 1.89253 1.875 4.21875C1.875 6.54497 3.76753 8.4375 6.09375 8.4375ZM6.09375 1.25C7.73072 1.25 9.0625 2.58178 9.0625 4.21875C9.0625 5.85572 7.73072 7.1875 6.09375 7.1875C4.45678 7.1875 3.125 5.85572 3.125 4.21875C3.125 2.58178 4.45678 1.25 6.09375 1.25ZM11.9583 13.0625C11.9583 13.494 11.6086 13.8438 11.1771 13.8438C10.7456 13.8438 10.3958 13.494 10.3958 13.0625C10.3958 12.631 10.7456 12.2812 11.1771 12.2812C11.6086 12.2812 11.9583 12.631 11.9583 13.0625ZM6.9375 10.3125C6.9375 10.6577 6.65769 10.9375 6.3125 10.9375H5.6875C3.24066 10.9375 1.25 12.9282 1.25 15.375C1.25 15.7202 0.970187 16 0.625 16C0.279813 16 0 15.7202 0 15.375C0 12.2389 2.55141 9.6875 5.6875 9.6875H6.3125C6.65769 9.6875 6.9375 9.96731 6.9375 10.3125Z" fill="#3B3F45"/>
</svg>
