<svg width="17" height="15" viewBox="0 0 17 15" fill="none" xmlns="http://www.w3.org/2000/svg">
<path fill-rule="evenodd" clip-rule="evenodd" d="M7.16667 0H13.44C14.2516 0 15.0299 0.362691 15.6037 1.00828C16.1776 1.65388 16.5 2.52949 16.5 3.4425V11.5575C16.5 12.4705 16.1776 13.3461 15.6037 13.9917C15.0299 14.6373 14.2516 15 13.44 15H7.16667C6.98986 15 6.82029 14.921 6.69526 14.7803C6.57024 14.6397 6.5 14.4489 6.5 14.25C6.5 14.0511 6.57024 13.8603 6.69526 13.7197C6.82029 13.579 6.98986 13.5 7.16667 13.5H13.44C13.8979 13.5 14.3371 13.2953 14.6609 12.9311C14.9848 12.5668 15.1667 12.0727 15.1667 11.5575V3.4425C15.1667 2.92732 14.9848 2.43323 14.6609 2.06894C14.3371 1.70466 13.8979 1.5 13.44 1.5H7.16667C6.98986 1.5 6.82029 1.42098 6.69526 1.28033C6.57024 1.13968 6.5 0.948912 6.5 0.75C6.5 0.551088 6.57024 0.360322 6.69526 0.219669C6.82029 0.0790171 6.98986 0 7.16667 0ZM9.36872 8.17335H2.1658L3.77556 9.88224C3.83359 9.94396 3.87938 10.017 3.91031 10.0971C3.94124 10.1772 3.95671 10.2629 3.95583 10.3493C3.95495 10.4357 3.93774 10.521 3.90519 10.6004C3.87263 10.6799 3.82537 10.7519 3.7661 10.8123C3.70682 10.8727 3.6367 10.9204 3.55973 10.9526C3.48276 10.9848 3.40045 11.0009 3.3175 11C3.23455 10.999 3.15259 10.9811 3.0763 10.9472C3 10.9133 2.93086 10.8641 2.87283 10.8024L0.183573 7.94988C0.0659965 7.82673 0 7.66014 0 7.4865C0 7.31286 0.0659965 7.14628 0.183573 7.02313L2.86652 4.22974C2.92311 4.16094 2.99275 4.10506 3.07107 4.06561C3.14939 4.02616 3.2347 4.00399 3.32164 4.00049C3.40858 3.99699 3.49527 4.01225 3.57628 4.04529C3.65729 4.07833 3.73087 4.12846 3.79239 4.19251C3.85391 4.25656 3.90205 4.33317 3.93379 4.41751C3.96553 4.50185 3.98017 4.59212 3.97682 4.68264C3.97346 4.77315 3.95216 4.86197 3.91427 4.94352C3.87638 5.02506 3.82271 5.09757 3.75663 5.15649L2.12161 6.85881H9.36872C9.53615 6.85881 9.69671 6.92806 9.8151 7.05132C9.93349 7.17458 10 7.34176 10 7.51608C10 7.6904 9.93349 7.85758 9.8151 7.98084C9.69671 8.1041 9.53615 8.17335 9.36872 8.17335Z" fill="#3B3F45"/>
</svg>
