<?xml version="1.0" encoding="UTF-8"?>
<svg width="167" height="40" viewBox="0 0 167 40" fill="none" xmlns="http://www.w3.org/2000/svg">
<path d="M22.3918 37.7391C22.3918 37.7391 23.9578 40.4361 30.1349 38.5221C33.0059 37.6521 35.007 36.0861 36.399 34.4331C38.4 32.0841 39.444 29.126 39.531 25.994C39.705 22.949 39.183 19.9039 37.008 16.0759C33.702 10.1598 29.5259 7.98479 28.4819 6.33177C27.4379 4.67875 26.6549 3.46074 26.1329 2.24272C25.6109 1.02471 24.9148 0.763705 24.9148 0.763705C24.9148 0.763705 24.2188 0.0676972 21.5218 2.15572C18.8248 4.24374 14.8227 6.67977 13.4307 7.37578C12.1257 8.15879 -0.228435 14.5969 0.728576 26.081C1.68559 37.5651 12.1257 38.9571 12.1257 38.9571C12.1257 38.9571 17.7808 40.3491 22.2178 37.9131C22.3918 37.8261 22.5658 37.7391 22.7398 37.6521C23.1748 37.3911 23.6098 37.0431 24.0448 36.6081" fill="#E6938D"/>
<path d="M15.867 40C13.779 40 12.2129 39.652 11.9519 39.565C11.6039 39.478 9.0809 39.13 6.38387 37.39C3.77384 35.65 0.554803 32.3439 0.0327973 26.1668C-0.141205 23.4698 0.380801 20.7728 1.51181 18.2498C2.46882 16.1617 3.86084 14.2477 5.68786 12.3337C7.77588 10.2457 10.3859 8.33164 13.1699 6.85262C14.649 6.06962 18.651 3.63359 21.174 1.63257C23.6971 -0.368456 24.8281 -0.107453 25.2631 0.240551C25.5241 0.414553 26.1331 0.849558 26.6551 1.98057C27.1771 3.19858 27.9601 4.4166 29.0041 5.98262C29.2651 6.41762 29.9611 7.02663 30.7441 7.72263C32.5712 9.28865 35.2682 11.7247 37.6172 15.8137C39.6182 19.2938 40.4013 22.4258 40.2272 26.0798C40.0532 29.3859 38.9222 32.5179 36.9212 34.8669C35.1812 36.955 32.9192 38.434 30.3091 39.217C25.3501 40.696 23.0881 39.391 22.218 38.608C20.13 39.739 17.781 40 15.867 40ZM24.5671 1.28456C24.3061 1.28456 23.6101 1.37156 22.044 2.67658C19.434 4.7646 15.432 7.11363 13.866 7.98364C10.6469 9.63666 0.554803 15.8137 1.33781 26.0798C1.68582 30.6039 3.59984 34.0839 7.07988 36.346C9.68991 37.999 12.1259 38.347 12.2129 38.347H12.2999C12.3869 38.347 17.781 39.652 21.957 37.39C22.131 37.303 22.305 37.216 22.392 37.129C22.8271 36.868 23.2621 36.52 23.6101 36.172C23.8711 35.911 24.3061 35.911 24.4801 36.172C24.7411 36.433 24.7411 36.868 24.4801 37.042C24.2191 37.303 23.8711 37.564 23.5231 37.825C24.3061 38.347 26.2201 39.043 30.0481 37.912C32.3972 37.216 34.3982 35.911 36.0512 33.9969C37.8782 31.8219 38.9222 28.9509 39.0962 25.9928C39.2702 22.5128 38.4872 19.6418 36.6602 16.4227C34.3982 12.5077 31.7882 10.1587 30.1351 8.67965C29.2651 7.89664 28.5691 7.28763 28.2211 6.76562C27.0901 5.11261 26.3071 3.80759 25.7851 2.58958C25.4371 1.71957 25.0021 1.45856 24.9151 1.45856L24.5671 1.28456Z" fill="#3B3F45"/>
<path d="M27.959 30.3427C27.35 29.6467 27.002 28.7767 26.915 27.9067C27.35 27.2977 27.698 26.6887 27.959 25.9057C29.438 22.1646 28.655 18.0756 27.524 14.2475C26.828 11.8985 25.958 9.54948 25.262 7.20046C25.088 6.93945 24.74 6.93945 24.566 7.11346C24.305 7.28746 24.218 7.63546 24.305 7.98347C26.132 14.4215 30.917 23.6436 24.74 29.0377C23.3479 30.2557 21.7819 31.1257 20.3899 32.2567C20.2159 32.3437 20.1289 32.6047 20.1289 32.8657C20.1289 33.0398 20.3029 33.2138 20.4769 33.0398C21.8689 32.0827 23.3479 31.2997 24.653 30.2557C25.349 29.7337 25.871 29.1247 26.393 28.5157C26.393 28.5157 26.393 28.5157 26.48 28.4287C26.567 29.2987 26.915 30.0817 27.524 30.7777C28.22 31.4737 29.003 31.9087 29.873 32.1697C30.047 32.2567 30.308 31.8217 30.134 31.7347C29.438 31.3867 28.568 30.9517 27.959 30.3427Z" fill="#3B3F45"/>
<path d="M16.2572 34.5286C16.5244 33.0144 15.2834 31.5296 13.4852 31.2123C11.6871 30.8949 10.0128 31.8652 9.74558 33.3794C9.47835 34.8936 10.7194 36.3783 12.5175 36.6957C14.3156 37.013 15.9899 36.0428 16.2572 34.5286Z" fill="white"/>
<path d="M7.5555 30.6812C7.68076 29.9714 7.24527 29.3012 6.58281 29.1843C5.92034 29.0674 5.28176 29.548 5.1565 30.2578C5.03123 30.9676 5.46672 31.6377 6.12919 31.7547C6.79165 31.8716 7.43023 31.391 7.5555 30.6812Z" fill="white"/>
<path d="M37.2675 17.4661C38.8335 20.9461 41.5305 30.2552 33.7004 36.2583C33.7004 36.2583 28.3064 39.5643 24.3913 38.2593C24.2173 38.1723 24.0433 38.1723 23.8693 37.9983C23.7823 37.9983 23.6953 37.9113 23.6953 37.9113C23.6953 37.7373 23.9563 37.7373 24.2173 37.6503C24.3043 37.6503 24.7393 37.6503 24.8263 37.5633C25.2613 37.3893 34.4834 36.3453 36.3975 28.7762C36.3975 28.7762 37.2675 26.0792 36.7455 21.2071C36.6585 20.2501 36.2235 19.0321 35.7014 17.5531C35.4404 16.6831 35.0054 14.7691 34.5704 13.8991C33.9614 12.42 35.1794 14.3341 35.7884 15.2041C36.3105 15.8131 37.0065 16.9441 37.2675 17.4661Z" fill="#EBBEB0"/>
<path d="M80.3354 25.3858C80.5094 26.4298 80.6834 27.1258 80.8574 27.4738C81.2054 28.2568 81.9014 28.6918 82.7714 28.6918C83.0324 28.6918 83.3804 28.6048 83.8154 28.5178L83.3804 32.5199C82.8584 32.6069 82.4234 32.6069 81.9884 32.6069C81.1184 32.6069 80.4224 32.5199 79.8134 32.3459C79.2043 32.1719 78.7693 31.9109 78.3343 31.4759C77.8993 31.1279 77.6383 30.6059 77.3773 29.9969C77.1163 29.3878 76.8553 28.6918 76.6813 27.9088L75.2893 29.0398V32.3459H70.1562V16.3377L75.2893 15.5547V23.9068L81.5534 18.7737L84.3374 22.6018L80.3354 25.3858Z" fill="#3B3F45"/>
<path d="M86.6875 16.1626C86.6875 15.8146 86.7745 15.4666 86.9485 15.2056C87.1225 14.9446 87.2965 14.6836 87.5575 14.4226C87.8185 14.2486 88.0795 14.0746 88.4275 13.9006C88.7755 13.8136 89.1235 13.7266 89.4715 13.7266C89.9065 13.7266 90.2545 13.8136 90.6025 13.9876C90.9505 14.1616 91.2115 14.3356 91.4725 14.5966C91.7336 14.8576 91.9076 15.1186 91.9946 15.3796C92.1686 15.6406 92.1686 15.9886 92.1686 16.2496C92.1686 16.5976 92.0816 16.9456 91.9076 17.2066C91.7336 17.4676 91.5596 17.7286 91.2986 17.9896C91.0375 18.2506 90.7765 18.3376 90.4285 18.5116C90.0805 18.5986 89.7325 18.6856 89.3845 18.6856C89.0365 18.6856 88.6015 18.5986 88.2535 18.5116C87.9055 18.4246 87.6445 18.2506 87.3835 17.9896C87.1225 17.7286 86.9485 17.4676 86.7745 17.2066C86.7745 16.8586 86.6875 16.5106 86.6875 16.1626ZM94.3436 31.7358C93.3866 32.2578 92.3426 32.6058 91.1245 32.6058C90.4285 32.6058 89.8195 32.5188 89.2975 32.2578C88.7755 31.9968 88.3405 31.7358 87.9055 31.3008C87.5575 30.8658 87.2965 30.3438 87.0355 29.7347C86.8615 29.1257 86.7745 28.4297 86.7745 27.7337V20.2516H91.9076V27.4727C91.9076 27.8207 91.9946 28.1687 92.2556 28.3427C92.4296 28.5167 92.6906 28.6037 93.0386 28.6037C93.3866 28.6037 93.6476 28.5167 94.0826 28.3427L94.3436 31.7358Z" fill="#3B3F45"/>
<path d="M104.086 29.2143C105.217 29.2143 106.435 28.9533 107.653 28.3443L108.262 31.6503C106.783 32.3463 105.13 32.6073 103.303 32.6073C102.259 32.6073 101.302 32.4333 100.519 32.1723C99.6487 31.8243 98.9527 31.3893 98.3437 30.8673C97.7347 30.3453 97.2997 29.6493 96.9517 28.8663C96.6037 28.0833 96.4297 27.3003 96.4297 26.3433C96.4297 25.3862 96.6037 24.5162 96.9517 23.7332C97.2997 22.9502 97.8217 22.3412 98.4307 21.7322C99.0397 21.2102 99.7357 20.7752 100.606 20.4272C101.389 20.1662 102.259 19.9922 103.216 19.9922C104.173 19.9922 104.956 20.1662 105.652 20.4272C106.348 20.7752 106.957 21.2102 107.392 21.7322C107.827 22.2542 108.175 22.9502 108.436 23.6462C108.697 24.3422 108.784 25.1252 108.784 25.9953C108.784 26.0823 108.784 26.2563 108.784 26.3433C108.784 26.4303 108.784 26.5173 108.784 26.6043L101.476 27.5613C101.65 28.1703 101.998 28.5183 102.433 28.7793C102.781 29.0403 103.39 29.2143 104.086 29.2143ZM104.956 24.5162C104.695 23.4722 104.086 23.0372 103.129 23.0372C102.868 23.0372 102.52 23.1242 102.346 23.2112C102.085 23.2982 101.911 23.4722 101.737 23.7332C101.563 23.9072 101.476 24.1682 101.389 24.5162C101.302 24.7772 101.215 25.1252 101.215 25.4732L104.956 24.5162Z" fill="#3B3F45"/>
<path d="M112.176 15.6406H119.484C120.876 15.6406 122.094 15.8146 123.138 16.2496C124.269 16.6846 125.226 17.2066 126.009 17.9897C126.792 18.6857 127.401 19.5557 127.836 20.5997C128.271 21.6437 128.445 22.6877 128.445 23.9057C128.445 25.2107 128.271 26.3417 127.836 27.3858C127.401 28.4298 126.792 29.2998 126.009 30.0828C125.226 30.8658 124.269 31.3878 123.138 31.8228C122.007 32.2578 120.789 32.4318 119.484 32.4318H112.176V15.6406ZM119.397 27.9948C120.006 27.9948 120.528 27.8208 120.963 27.5598C121.398 27.2988 121.746 26.9508 122.094 26.6027C122.355 26.1677 122.616 25.7327 122.703 25.2977C122.877 24.7757 122.877 24.3407 122.877 23.9057C122.877 23.3837 122.79 22.8617 122.616 22.3397C122.442 21.9047 122.181 21.4697 121.92 21.1217C121.572 20.7737 121.224 20.5127 120.789 20.3387C120.354 20.1647 119.919 20.0777 119.397 20.0777H117.483V28.0818H119.397V27.9948Z" fill="#DB886E"/>
<path d="M134.884 15.6406H142.28L147.152 32.3448H141.41L140.801 29.1258H136.451L135.754 32.3448H130.273L134.884 15.6406ZM140.192 26.1677L138.626 18.8597L136.973 26.1677H140.192Z" fill="#DB886E"/>
<path d="M148.891 24.079C148.891 21.643 149.674 19.642 151.24 17.9889C152.893 16.2489 155.068 15.3789 157.939 15.3789C159.331 15.3789 160.549 15.6399 161.68 16.0749C162.811 16.5099 163.768 17.1189 164.464 17.9019C165.247 18.6849 165.856 19.642 166.291 20.686C166.726 21.73 166.9 22.948 166.9 24.166C166.9 24.949 166.813 25.645 166.639 26.428C166.465 27.124 166.204 27.82 165.856 28.5161C165.508 29.1251 165.073 29.7341 164.551 30.2561C164.029 30.7781 163.42 31.3001 162.811 31.6481C162.115 32.0831 161.419 32.3441 160.636 32.6051C159.853 32.8661 158.896 32.9531 157.939 32.9531C156.982 32.9531 156.025 32.8661 155.242 32.6051C154.459 32.3441 153.676 32.0831 152.98 31.6481C152.284 31.2131 151.762 30.7781 151.24 30.2561C150.718 29.7341 150.283 29.1251 149.935 28.4291C149.587 27.82 149.326 27.124 149.152 26.341C148.978 25.558 148.891 24.775 148.891 24.079ZM157.852 28.342C158.461 28.342 158.983 28.168 159.418 27.907C159.853 27.646 160.201 27.298 160.462 26.863C160.723 26.428 160.984 25.993 161.071 25.471C161.245 24.949 161.245 24.427 161.245 23.992C161.245 23.383 161.158 22.774 160.984 22.252C160.81 21.73 160.549 21.295 160.288 20.86C159.94 20.425 159.592 20.164 159.157 19.903C158.722 19.642 158.2 19.555 157.678 19.555C157.069 19.555 156.46 19.729 156.025 19.99C155.59 20.251 155.242 20.599 154.894 21.034C154.633 21.469 154.372 21.904 154.285 22.426C154.111 22.948 154.111 23.47 154.111 23.992C154.111 24.601 154.198 25.21 154.372 25.732C154.546 26.254 154.807 26.689 155.068 27.124C155.416 27.472 155.764 27.82 156.199 27.994C156.808 28.255 157.33 28.342 157.852 28.342Z" fill="#DB886E"/>
<path d="M58.1496 15.3792C57.9756 15.0312 57.6276 14.7702 57.3666 14.5962C57.1056 14.4222 56.8446 14.3352 56.5836 14.2482C56.2356 14.1612 55.8876 14.0742 55.5396 14.0742C55.1046 14.0742 54.5826 14.1612 54.1476 14.2482C53.7126 14.3352 53.2776 14.4222 52.8426 14.5962C52.4076 14.7702 51.8855 15.0312 51.4505 15.2922C51.1025 15.5532 50.6675 15.9012 50.4065 16.2492C49.0145 17.7283 48.4055 19.6423 48.4925 21.6433C48.4925 22.5133 48.6665 23.3833 49.0145 24.2533C49.3625 25.2103 49.8845 26.0804 50.4935 26.9504C51.0155 27.6464 51.5375 28.2554 52.1466 28.7774C52.4946 29.1254 52.8426 29.3864 53.1906 29.7344C53.2776 29.8214 53.2776 29.8214 53.3646 29.9084C53.2776 29.8214 53.1906 29.7344 53.1036 29.6474C53.2776 29.9084 53.4516 30.0824 53.5386 30.3434C53.7126 30.6044 53.7996 30.8654 53.9736 31.1264C54.0606 31.2134 54.0606 31.3874 54.1476 31.4744C54.2346 31.7354 54.4086 31.9094 54.5826 32.0834C54.7566 32.2574 54.9306 32.4314 55.1046 32.5184C55.0176 32.4314 54.9306 32.3444 54.8436 32.2574C55.2786 32.6924 55.8876 32.7794 56.4966 32.6924C57.1926 32.5184 57.8016 32.0834 58.3236 31.6484C58.2366 31.7354 58.1496 31.8224 58.0626 31.9094C58.9326 31.2134 59.8896 30.6914 60.8466 30.0824C61.1947 29.9084 61.5427 29.7344 61.8907 29.4734C62.4997 29.1254 63.0217 28.6904 63.6307 28.2554C64.2397 27.8204 64.7617 27.2114 65.2837 26.6894C65.6317 26.2544 65.9797 25.8194 66.2407 25.3843C66.5017 24.9493 66.7627 24.4273 66.9367 23.9053C67.1107 23.3833 67.1977 22.7743 67.2847 22.2523C67.3717 21.7303 67.3717 21.2953 67.2847 20.7733C67.1977 20.1643 67.1107 19.5553 66.9367 18.9463C66.7627 18.4243 66.5017 17.9023 66.2407 17.4673C65.7187 16.6842 65.1097 15.9882 64.3267 15.4662C63.8047 15.1182 63.1957 14.7702 62.4997 14.5962C62.2387 14.5092 61.9777 14.4222 61.6297 14.3352C61.4557 14.3352 61.3687 14.3352 61.1947 14.2482C61.2817 14.2482 61.4557 14.2482 61.5427 14.3352C61.0206 14.2482 60.4986 14.1612 60.0636 14.1612C59.7156 14.1612 59.2806 14.1612 58.9326 14.1612C58.4106 14.2482 57.8016 14.3352 57.2796 14.5092C56.4966 14.7702 55.8876 15.1182 55.2786 15.6402C55.0176 15.9012 54.8436 16.3362 54.8436 16.6842C54.8436 17.0323 55.0176 17.4673 55.2786 17.7283C55.5396 17.9893 55.8876 18.1633 56.3226 18.1633C56.6706 18.1633 57.0186 17.9893 57.3666 17.7283C57.4536 17.6413 57.5406 17.5543 57.6276 17.4673C57.5406 17.5543 57.4536 17.6413 57.3666 17.7283C57.6276 17.5543 57.8886 17.3803 58.2366 17.2063C58.1496 17.2933 57.9756 17.2933 57.8886 17.3803C58.3236 17.2063 58.7586 17.1193 59.1936 17.0323C59.1066 17.0323 58.9326 17.0323 58.8456 17.1193C59.4546 17.0323 60.0636 17.0323 60.7596 17.1193C60.6726 17.1193 60.4986 17.1193 60.4116 17.0323C60.7596 17.0323 61.0206 17.1193 61.3687 17.2063C61.2817 17.2063 61.1076 17.2063 61.0206 17.1193C61.4557 17.2063 61.8907 17.2933 62.2387 17.4673C62.1517 17.3803 61.9777 17.3803 61.8907 17.2933C62.3257 17.4673 62.7607 17.7283 63.1957 18.0763C63.1087 17.9893 63.0217 17.9023 62.9347 17.8153C63.2827 18.0763 63.6307 18.4243 63.8917 18.7723C63.8047 18.6853 63.7177 18.5983 63.6307 18.5113C63.8917 18.8593 64.1527 19.2943 64.3267 19.6423C64.2397 19.5553 64.2397 19.3813 64.1527 19.2943C64.4137 19.8163 64.5007 20.3383 64.5877 20.9473C64.5877 20.8603 64.5877 20.6863 64.5007 20.5993C64.5877 21.2083 64.5877 21.7303 64.5007 22.3393C64.5007 22.2523 64.5007 22.0783 64.5877 21.9913C64.5007 22.5133 64.3267 23.0353 64.1527 23.5573C64.2397 23.4703 64.2397 23.2963 64.3267 23.2093C64.0657 23.8183 63.7177 24.3403 63.3697 24.8623C63.4567 24.7753 63.5437 24.6883 63.6307 24.6013C63.1087 25.2973 62.4127 25.9064 61.7167 26.5154C61.8037 26.4284 61.8907 26.3414 61.9777 26.2544C60.9336 27.0374 59.7156 27.6464 58.5846 28.3424C57.8886 28.7774 57.1926 29.2994 56.4966 29.8214C56.5836 29.7344 56.6706 29.6474 56.7576 29.5604C56.4966 29.7344 56.2356 29.9084 55.9746 30.0824C56.0616 29.9954 56.2356 29.9954 56.3226 29.9084C56.2356 29.9084 56.1486 29.9954 56.0616 29.9954C56.1486 29.9954 56.3226 29.9954 56.4096 29.9084C56.3226 29.9084 56.3226 29.9084 56.2356 29.9084C56.3226 29.9084 56.4966 29.9084 56.5836 29.9954H56.4966C56.5836 30.0824 56.7576 30.0824 56.8446 30.1694C56.9316 30.2564 57.0186 30.3434 57.1056 30.4304C57.0186 30.3434 56.8446 30.2564 56.7576 30.1694C56.8446 30.2564 56.9316 30.3434 57.0186 30.4304C56.9316 30.3434 56.9316 30.3434 56.8446 30.2564C56.9316 30.3434 57.0186 30.4304 57.1056 30.5174C56.9316 30.3434 56.8446 30.0824 56.7576 29.9084C56.6706 29.7344 56.4966 29.4734 56.4096 29.2994C56.1486 28.8644 55.8876 28.4294 55.5396 28.0814C55.1046 27.6464 54.5826 27.2114 54.1476 26.7764C53.7996 26.4284 53.4516 25.9934 53.1036 25.6453C53.1906 25.7323 53.2776 25.8193 53.3646 25.9064C52.8426 25.2103 52.3206 24.4273 51.9725 23.6443C52.0595 23.7313 52.0596 23.9053 52.1466 23.9923C51.8855 23.4703 51.7115 22.8613 51.6245 22.2523C51.6245 22.3393 51.6245 22.5133 51.7115 22.6003C51.6245 21.9913 51.6245 21.3823 51.7115 20.7733C51.7115 20.8603 51.7115 21.0343 51.6245 21.1213C51.7115 20.5993 51.7985 20.0773 52.0595 19.5553C51.9725 19.6423 51.9725 19.8163 51.8855 19.9033C52.0595 19.4683 52.3206 19.1203 52.5816 18.6853C52.4946 18.7723 52.4076 18.8593 52.3206 18.9463C52.5816 18.5983 52.9296 18.2503 53.2776 17.9893C53.1906 18.0763 53.1036 18.1633 53.0166 18.2503C53.3646 17.9893 53.7996 17.7283 54.1476 17.5543C54.0606 17.6413 53.8866 17.6413 53.7996 17.7283C54.3216 17.5543 54.8436 17.3803 55.3656 17.2933C55.2786 17.2933 55.1046 17.2933 55.0176 17.3803C55.3656 17.3803 55.7136 17.2933 55.9746 17.3803C55.8876 17.3803 55.7136 17.3803 55.6266 17.2933C55.8006 17.2933 55.9746 17.3803 56.2356 17.4673C56.1486 17.3803 55.9746 17.3803 55.8876 17.2933C55.9746 17.3803 56.1486 17.3803 56.2356 17.4673C56.1486 17.3803 56.0616 17.2933 55.9746 17.2063C56.0616 17.2933 56.0616 17.2933 56.1486 17.3803C56.0616 17.2933 55.9746 17.2063 55.8876 17.1193C56.0616 17.4673 56.4096 17.6413 56.7576 17.8153C57.1056 17.9023 57.5406 17.9023 57.8886 17.6413C58.2366 17.4673 58.4976 17.1193 58.5846 16.7712C58.3236 16.1622 58.3236 15.7272 58.1496 15.3792Z" fill="#3B3F45"/>
</svg>
