<svg width="34" height="40" viewBox="0 0 34 40" fill="none" xmlns="http://www.w3.org/2000/svg">
<g filter="url(#filter0_d)">
<path d="M17.0099 27.9332L13.6036 29.4472V19.8692H20.7479V29.4472L17.3415 27.9332L17.1757 27.8595L17.0099 27.9332Z" fill="#556DF6" stroke="#556DF6" stroke-width="0.816495"/>
<path d="M24.3711 17.6914L20.9535 18.6071L23.2429 27.1511L26.1633 24.3802L24.3711 17.6914Z" fill="#FF5910"/>
<path d="M24.3711 17.6914L20.9535 18.6071L23.2429 27.1511L26.1633 24.3802L24.3711 17.6914Z" fill="url(#paint0_linear)"/>
<path d="M9.97656 17.6914L13.3941 18.6071L11.1048 27.1511L8.18431 24.3802L9.97656 17.6914Z" fill="#FF5910"/>
<path d="M9.97656 17.6914L13.3941 18.6071L11.1048 27.1511L8.18431 24.3802L9.97656 17.6914Z" fill="url(#paint1_linear)"/>
<path d="M15.367 0.942807C16.3775 0.359396 17.6225 0.359396 18.633 0.942807L26.6253 5.55719C27.6358 6.1406 28.2583 7.21879 28.2583 8.38561V17.6144C28.2583 18.7812 27.6358 19.8594 26.6253 20.4428L18.633 25.0572C17.6225 25.6406 16.3775 25.6406 15.367 25.0572L7.37466 20.4428C6.36416 19.8594 5.74167 18.7812 5.74167 17.6144V8.38561C5.74167 7.21879 6.36416 6.1406 7.37466 5.55719L15.367 0.942807Z" fill="#FF3D00"/>
<path d="M15.367 0.942807C16.3775 0.359396 17.6225 0.359396 18.633 0.942807L26.6253 5.55719C27.6358 6.1406 28.2583 7.21879 28.2583 8.38561V17.6144C28.2583 18.7812 27.6358 19.8594 26.6253 20.4428L18.633 25.0572C17.6225 25.6406 16.3775 25.6406 15.367 25.0572L7.37466 20.4428C6.36416 19.8594 5.74167 18.7812 5.74167 17.6144V8.38561C5.74167 7.21879 6.36416 6.1406 7.37466 5.55719L15.367 0.942807Z" fill="url(#paint2_linear)"/>
<path d="M15.7736 2.56257C16.5315 2.12502 17.4652 2.12502 18.2231 2.56257L25.4236 6.71979C26.1815 7.15735 26.6483 7.96599 26.6483 8.84111V17.1555C26.6483 18.0307 26.1815 18.8393 25.4236 19.2769L18.2231 23.4341C17.4652 23.8716 16.5315 23.8716 15.7736 23.4341L8.57307 19.2769C7.8152 18.8393 7.34833 18.0307 7.34833 17.1555V8.84111C7.34833 7.96599 7.8152 7.15735 8.57307 6.71979L15.7736 2.56257Z" fill="#FEDB31"/>
<path d="M15.7736 2.56257C16.5315 2.12502 17.4652 2.12502 18.2231 2.56257L25.4236 6.71979C26.1815 7.15735 26.6483 7.96599 26.6483 8.84111V17.1555C26.6483 18.0307 26.1815 18.8393 25.4236 19.2769L18.2231 23.4341C17.4652 23.8716 16.5315 23.8716 15.7736 23.4341L8.57307 19.2769C7.8152 18.8393 7.34833 18.0307 7.34833 17.1555V8.84111C7.34833 7.96599 7.8152 7.15735 8.57307 6.71979L15.7736 2.56257Z" fill="url(#paint3_linear)"/>
<path d="M16.5918 6.7357C16.8444 6.58985 17.1556 6.58985 17.4082 6.7357L22.2209 9.5143C22.4735 9.66015 22.6292 9.9297 22.6292 10.2214V15.7786C22.6292 16.0703 22.4735 16.3398 22.2209 16.4857L17.4082 19.2643C17.1556 19.4102 16.8444 19.4102 16.5918 19.2643L11.7791 16.4857C11.5265 16.3398 11.3708 16.0703 11.3708 15.7786V10.2214C11.3708 9.9297 11.5265 9.66015 11.7791 9.5143L16.5918 6.7357Z" fill="#FF9900"/>
<path d="M16.5918 6.7357C16.8444 6.58985 17.1556 6.58985 17.4082 6.7357L22.2209 9.5143C22.4735 9.66015 22.6292 9.9297 22.6292 10.2214V15.7786C22.6292 16.0703 22.4735 16.3398 22.2209 16.4857L17.4082 19.2643C17.1556 19.4102 16.8444 19.4102 16.5918 19.2643L11.7791 16.4857C11.5265 16.3398 11.3708 16.0703 11.3708 15.7786V10.2214C11.3708 9.9297 11.5265 9.66015 11.7791 9.5143L16.5918 6.7357Z" fill="url(#paint4_linear)"/>
<path d="M13.1816 10.7947L16.9983 8.59117L20.815 10.7947V15.2019L16.9983 17.4055L13.1816 15.2019V10.7947Z" fill="#556DF6"/>
<path d="M13.1816 10.7947L16.9983 8.59117L20.815 10.7947V15.2019L16.9983 17.4055L13.1816 15.2019V10.7947Z" fill="url(#paint5_linear)"/>
<path d="M13.1816 10.7947L16.9983 8.59117L20.815 10.7947V15.2019L16.9983 17.4055L13.1816 15.2019V10.7947Z" stroke="#00AEAE" stroke-width="0.408247"/>
</g>
<defs>
<filter id="filter0_d" x="0.843218" y="0.503906" width="32.3146" height="39.3694" filterUnits="userSpaceOnUse" color-interpolation-filters="sRGB">
<feFlood flood-opacity="0" result="BackgroundImageFix"/>
<feColorMatrix in="SourceAlpha" type="matrix" values="0 0 0 0 0 0 0 0 0 0 0 0 0 0 0 0 0 0 127 0"/>
<feOffset dy="4.89897"/>
<feGaussianBlur stdDeviation="2.44948"/>
<feColorMatrix type="matrix" values="0 0 0 0 0.972549 0 0 0 0 0.690196 0 0 0 0 0.0901961 0 0 0 0.3 0"/>
<feBlend mode="normal" in2="BackgroundImageFix" result="effect1_dropShadow"/>
<feBlend mode="normal" in="SourceGraphic" in2="effect1_dropShadow" result="shape"/>
</filter>
<linearGradient id="paint0_linear" x1="22.6623" y1="18.1493" x2="24.9516" y2="26.6932" gradientUnits="userSpaceOnUse">
<stop stop-color="white"/>
<stop offset="1" stop-color="white" stop-opacity="0"/>
</linearGradient>
<linearGradient id="paint1_linear" x1="11.6854" y1="18.1493" x2="9.39601" y2="26.6932" gradientUnits="userSpaceOnUse">
<stop stop-color="white"/>
<stop offset="1" stop-color="white" stop-opacity="0"/>
</linearGradient>
<linearGradient id="paint2_linear" x1="17" y1="0" x2="17" y2="26" gradientUnits="userSpaceOnUse">
<stop stop-color="#FFF4C0" stop-opacity="0.55"/>
<stop offset="1" stop-color="#FEDB31" stop-opacity="0"/>
</linearGradient>
<linearGradient id="paint3_linear" x1="16.9983" y1="1.85547" x2="16.9983" y2="24.1412" gradientUnits="userSpaceOnUse">
<stop stop-color="white"/>
<stop offset="1" stop-color="white" stop-opacity="0"/>
</linearGradient>
<linearGradient id="paint4_linear" x1="17" y1="6.5" x2="17" y2="19.5" gradientUnits="userSpaceOnUse">
<stop stop-color="white" stop-opacity="0"/>
<stop offset="1" stop-color="white"/>
</linearGradient>
<linearGradient id="paint5_linear" x1="16.9983" y1="8.35547" x2="16.9983" y2="17.6412" gradientUnits="userSpaceOnUse">
<stop stop-color="white" stop-opacity="0.71"/>
<stop offset="1" stop-color="white" stop-opacity="0"/>
</linearGradient>
</defs>
</svg>
