<svg width="17" height="16" viewBox="0 0 17 16" fill="none" xmlns="http://www.w3.org/2000/svg">
<path d="M7.0898 0.000455914C7.07853 0.000998141 7.06729 0.00196731 7.05609 0.00336133C3.03488 0.496116 0.00498584 3.91524 9.45674e-08 7.96653C-3.15225e-08 7.96672 -3.15225e-08 7.96691 9.45674e-08 7.96711C9.45674e-08 12.3983 3.60174 16 8.03289 16C8.03309 16 8.03328 16 8.03347 16C12.0863 15.9965 15.5072 12.9656 15.9995 8.94274C16.0099 8.85812 15.9958 8.7723 15.9589 8.69544C15.922 8.61857 15.8639 8.55388 15.7914 8.50902C15.7189 8.46415 15.6351 8.44098 15.5498 8.44226C15.4646 8.44354 15.3815 8.46921 15.3104 8.51623C14.3871 9.12696 13.3051 9.45342 12.1981 9.45468C9.07087 9.45468 6.54532 6.92913 6.54532 3.8019C6.54678 2.69597 6.87276 1.61454 7.48261 0.691945C7.5279 0.623231 7.55331 0.543333 7.55603 0.46108C7.55876 0.378828 7.53868 0.297424 7.49803 0.225866C7.45738 0.154308 7.39774 0.0953825 7.3257 0.0556026C7.25365 0.0158228 7.17201 -0.00326257 7.0898 0.000455914ZM6.32974 1.07081C5.9287 1.93101 5.65394 2.84456 5.65278 3.80132C5.65278 3.80151 5.65278 3.80171 5.65278 3.8019C5.65278 7.4115 8.5885 10.3472 12.1981 10.3472C12.1983 10.3472 12.1985 10.3472 12.1987 10.3472C13.1564 10.3462 14.0711 10.0713 14.9321 9.66968C14.157 12.8207 11.3515 15.1043 8.03289 15.1075C4.0843 15.1075 0.892863 11.9162 0.892544 7.96769V7.96711C0.896895 4.64969 3.17985 1.84584 6.32974 1.07081V1.07081Z" fill="current"/>
</svg>
