<svg width="17" height="16" viewBox="0 0 17 16" fill="none" xmlns="http://www.w3.org/2000/svg">
<path fill-rule="evenodd" clip-rule="evenodd" d="M7.03493 0.166947C7.14182 0.0600527 7.2868 0 7.43797 0C9.71003 0.00264656 11.8883 0.906395 13.4949 2.51299C15.1015 4.11959 16.0052 6.29784 16.0079 8.56991C16.0085 8.64518 15.9943 8.71984 15.9659 8.78957C15.9376 8.8593 15.8957 8.92273 15.8427 8.97619C15.7897 9.02965 15.7266 9.07208 15.6572 9.10104C15.5877 9.13 15.5131 9.1449 15.4379 9.1449H8.58296C8.12812 9.1449 7.69191 8.96422 7.37029 8.64259C7.04867 8.32097 6.86798 7.88476 6.86798 7.42992V0.569994C6.86798 0.418822 6.92803 0.273842 7.03493 0.166947ZM8.36329 7.95797C8.43303 7.98632 8.50768 8.00057 8.58296 7.99991H14.8429C14.7042 6.23334 13.9396 4.57427 12.6866 3.32128C11.4336 2.06828 9.77453 1.30365 8.00797 1.16499V7.42992C8.00796 7.50519 8.02287 7.57972 8.05183 7.64921C8.08078 7.71869 8.12322 7.78175 8.17667 7.83474C8.23013 7.88774 8.29356 7.92962 8.36329 7.95797ZM13.8662 10.2876C13.9414 10.2837 14.0166 10.2946 14.0875 10.3199C14.2293 10.3718 14.3447 10.4778 14.4084 10.6146C14.4722 10.7515 14.479 10.908 14.4275 11.0499C13.9233 12.5024 12.9773 13.7607 11.722 14.6484C10.4667 15.5361 8.96499 16.0087 7.42754 15.9999H7.00754C5.17022 15.8793 3.44145 15.087 2.15058 13.774C0.859717 12.461 0.0969588 10.7191 0.0076201 8.87995C-0.0646073 7.29092 0.378169 5.72103 1.27006 4.40392C2.16195 3.08681 3.45527 2.09287 4.95757 1.57003C5.02848 1.54508 5.10361 1.53434 5.17868 1.53843C5.25374 1.54251 5.32726 1.56134 5.39505 1.59384C5.46283 1.62634 5.52356 1.67188 5.57374 1.72784C5.62393 1.78381 5.66261 1.84911 5.68756 1.92003C5.71251 1.99094 5.72325 2.06607 5.71916 2.14114C5.71508 2.2162 5.69625 2.28972 5.66375 2.35751C5.63125 2.4253 5.58571 2.48602 5.52975 2.53621C5.47378 2.58639 5.40847 2.62507 5.33756 2.65002C4.06465 3.09389 2.96937 3.93743 2.21516 5.05479C1.46094 6.17214 1.08822 7.50341 1.15261 8.84995C1.23074 10.4041 1.87859 11.875 2.97243 12.9817C4.06627 14.0885 5.52945 14.7535 7.08254 14.8499C8.44139 14.9338 9.79035 14.5706 10.9234 13.8159C12.0565 13.0611 12.9113 11.9562 13.3575 10.6699C13.3821 10.5988 13.4207 10.5333 13.4708 10.4772C13.5209 10.421 13.5817 10.3754 13.6495 10.3428C13.7174 10.3103 13.791 10.2915 13.8662 10.2876Z" fill="current"/>
</svg>
