<svg width="9" height="8" viewBox="0 0 9 8" fill="none" xmlns="http://www.w3.org/2000/svg">
<path d="M7.26949 4.73942H4.73942V7.26058C4.73942 7.67038 4.4098 8 4 8C3.5902 8 3.26058 7.67038 3.26058 7.26058V4.73942H0.739421C0.329621 4.73051 0 4.40089 0 3.99109C0 3.79421 0.0801782 3.60802 0.213808 3.46548C0.356347 3.33185 0.54343 3.25167 0.739421 3.25167H3.26058V0.739421C3.26058 0.329621 3.5902 0 4 0C4.4098 0 4.73942 0.329621 4.73942 0.739421V3.25167H7.26949C7.67929 3.25167 8.00891 3.58129 8.00891 3.99109C8.00891 4.40089 7.67929 4.73051 7.26949 4.73942Z" fill="white"/>
</svg>
