<svg width="14" height="17" viewBox="0 0 14 17" fill="none" xmlns="http://www.w3.org/2000/svg">
<path fill-rule="evenodd" clip-rule="evenodd" d="M6.67027 0C4.22524 0 2.24316 1.99053 2.24316 4.44598C2.24316 6.90142 4.22524 8.89196 6.67027 8.89196C9.11529 8.89196 11.0974 6.90142 11.0974 4.44598C11.0974 1.99053 9.11529 0 6.67027 0ZM6.67029 1.20639C8.45187 1.20639 9.89612 2.6568 9.89612 4.44598C9.89612 6.23515 8.45187 7.68556 6.67029 7.68556C4.88871 7.68556 3.44446 6.23515 3.44446 4.44598C3.44446 2.6568 4.88871 1.20639 6.67029 1.20639ZM4.85837 10.6841C4.21027 10.7291 3.55517 10.8216 2.909 10.9601C1.66181 11.217 0.664044 11.7303 0.239366 12.5832C0.0791895 12.9168 -0.00134194 13.274 1.69125e-05 13.6356C-0.000463619 13.9946 0.0794158 14.3522 0.233848 14.6794C0.641619 15.5226 1.52317 15.9997 2.71354 16.2642L2.92677 16.3087C3.5554 16.4506 4.2107 16.5461 4.87039 16.5909C4.92657 16.6073 5.06048 16.6227 5.20663 16.6301L5.32685 16.6346C5.38866 16.6361 5.45881 16.6364 5.56334 16.6364C6.51154 16.6886 7.49452 16.6734 8.47293 16.5901C8.99433 16.5544 9.51925 16.4862 10.0398 16.3863L10.4292 16.3055C11.7146 16.0519 12.6771 15.5697 13.0988 14.6804C13.4115 14.0201 13.4115 13.2539 13.099 12.594C12.6783 11.7069 11.7281 11.2287 10.4195 10.9591C9.90606 10.8495 9.38434 10.7684 8.85889 10.7166L8.47475 10.6841C7.27161 10.5779 6.06152 10.5779 4.85837 10.6841ZM8.36966 11.8858L8.38023 11.8867C8.98326 11.9291 9.58262 12.0138 10.1739 12.14C11.1459 12.3402 11.8056 12.6722 12.0143 13.1123C12.1714 13.4442 12.1714 13.8298 12.0141 14.162C11.8191 14.5732 11.2267 14.8909 10.3704 15.0851L10.1829 15.1248C9.58002 15.2593 8.98265 15.346 8.38132 15.3873C7.44831 15.4666 6.52082 15.4809 5.59567 15.4309L5.26767 15.4253C5.17661 15.4206 5.09987 15.4119 5.02876 15.3976C4.46563 15.3551 3.95892 15.2878 3.46692 15.1903L3.17316 15.1281C2.19812 14.937 1.53265 14.6036 1.31689 14.1575C1.2414 13.9975 1.20107 13.8169 1.20131 13.6341C1.20064 13.4524 1.24043 13.2759 1.31768 13.1149C1.52747 12.6937 2.23269 12.3309 3.15508 12.1409C3.75064 12.0133 4.34971 11.9286 4.95248 11.8867C6.09672 11.7859 7.23646 11.7859 8.36966 11.8858Z" fill="#E4948F"/>
</svg>
