<svg width="17" height="17" viewBox="0 0 17 17" fill="none" xmlns="http://www.w3.org/2000/svg">
<path fill-rule="evenodd" clip-rule="evenodd" d="M6.05568 5.76132L6.29348 4.37253L5.28567 3.39074C5.02459 3.13644 4.9294 2.82204 5.02399 2.52796C5.11859 2.23388 5.38023 2.03409 5.74121 1.98017L7.13678 1.77803L7.7606 0.514782C7.9212 0.187996 8.19138 0 8.5011 0C8.81081 0 9.08132 0.188295 9.24279 0.515978L9.86571 1.77803L11.2589 1.97987C11.622 2.03439 11.8833 2.23358 11.9785 2.52766C12.0734 2.82114 11.9785 3.13554 11.7177 3.39015L10.7088 4.37286L10.9469 5.76192C10.9961 6.04567 10.9368 6.30585 10.7795 6.49268C10.6378 6.66122 10.4345 6.75406 10.2067 6.75406C10.0564 6.75406 9.9023 6.71312 9.74847 6.63267L8.50143 5.97704L7.25438 6.63237C6.86896 6.83511 6.45937 6.77262 6.22392 6.49328C6.06631 6.30615 6.00677 6.04627 6.05568 5.76132ZM7.98578 2.51614C7.90649 2.67671 7.75329 2.78811 7.57589 2.81374L6.42407 2.98058L7.2574 3.793C7.38587 3.91794 7.44421 4.09797 7.41416 4.27448L7.21763 5.42251L8.24869 4.8809C8.32768 4.83933 8.4146 4.81871 8.50153 4.81871C8.58845 4.81871 8.67538 4.83933 8.75464 4.88117L9.7848 5.42278L9.58853 4.27474C9.55789 4.09824 9.61682 3.91821 9.74499 3.79327L10.5789 2.98115L9.42673 2.81407C9.24933 2.7884 9.0961 2.67704 9.01684 2.51644L8.50146 1.47243L7.98578 2.51614ZM15.2582 15.9123H16.4561C16.7566 15.9123 17.0003 16.1557 17.0003 16.4563C17.0003 16.7569 16.7563 17 16.4561 17H0.543968C0.243678 17 0 16.7566 0 16.4563C0 16.156 0.243678 15.9123 0.543968 15.9123H1.74443V9.99891C1.74443 9.69835 1.98814 9.45494 2.2884 9.45494H4.87768C5.17824 9.45494 5.42165 9.69835 5.42165 9.99891C5.42165 10.2995 5.17794 10.5429 4.87768 10.5429H2.83266V15.9123H5.78818V7.90469C5.78818 7.60413 6.03189 7.36072 6.33215 7.36072H10.6702C10.9708 7.36072 11.2145 7.60413 11.2145 7.90469C11.2145 8.20524 10.9708 8.44865 10.6702 8.44865H6.87608V15.9123H10.1263V9.37804C10.1263 9.07749 10.3697 8.83408 10.6702 8.83408C10.9708 8.83408 11.2145 9.07749 11.2145 9.37804V15.9123H14.17V12.2151H12.125C11.8244 12.2151 11.5807 11.9717 11.5807 11.6712C11.5807 11.3706 11.8245 11.1272 12.125 11.1272H14.714C15.0145 11.1272 15.2582 11.3706 15.2582 11.6712V15.9123Z" fill="#3B3F45"/>
</svg>
