<svg width="19" height="20" viewBox="0 0 19 20" fill="none" xmlns="http://www.w3.org/2000/svg">
<path fill-rule="evenodd" clip-rule="evenodd" d="M15.3412 1.63672C14.3885 1.63672 13.6162 2.40903 13.6162 3.36172C13.6162 4.31441 14.3885 5.08672 15.3412 5.08672C16.2939 5.08672 17.0662 4.31441 17.0662 3.36172C17.0662 2.40903 16.2939 1.63672 15.3412 1.63672ZM12.1162 3.36172C12.1162 1.5806 13.5601 0.136719 15.3412 0.136719C17.1223 0.136719 18.5662 1.5806 18.5662 3.36172C18.5662 5.14284 17.1223 6.58672 15.3412 6.58672C14.4173 6.58672 13.5842 6.19823 12.9962 5.57571L6.88512 9.04793C6.97056 9.33764 7.01641 9.64433 7.01641 9.96172C7.01641 10.2791 6.97056 10.5858 6.88512 10.8755L12.9962 14.3477C13.5842 13.7252 14.4173 13.3367 15.3412 13.3367C17.1223 13.3367 18.5662 14.7806 18.5662 16.5617C18.5662 18.3428 17.1223 19.7867 15.3412 19.7867C13.5601 19.7867 12.1162 18.3428 12.1162 16.5617C12.1162 16.2442 12.1621 15.9374 12.2476 15.6476L6.13663 12.1754C5.54865 12.7981 4.71541 13.1867 3.79141 13.1867C2.01029 13.1867 0.566406 11.7428 0.566406 9.96172C0.566406 8.1806 2.01029 6.73672 3.79141 6.73672C4.71541 6.73672 5.54866 7.12531 6.13663 7.74799L12.2476 4.27585C12.1621 3.98603 12.1162 3.67924 12.1162 3.36172ZM2.06641 9.96172C2.06641 9.00903 2.83872 8.23672 3.79141 8.23672C4.7441 8.23672 5.51641 9.00903 5.51641 9.96172C5.51641 10.9144 4.7441 11.6867 3.79141 11.6867C2.83872 11.6867 2.06641 10.9144 2.06641 9.96172ZM13.6162 16.5617C13.6162 15.609 14.3885 14.8367 15.3412 14.8367C16.2939 14.8367 17.0662 15.609 17.0662 16.5617C17.0662 17.5144 16.2939 18.2867 15.3412 18.2867C14.3885 18.2867 13.6162 17.5144 13.6162 16.5617Z" fill="#727A88"/>
</svg>
