<svg width="14" height="16" viewBox="0 0 14 16" fill="none" xmlns="http://www.w3.org/2000/svg">
<path d="M6.64029 0.0813518L1.32542 1.89604C0.730403 2.09845 0.332031 2.64436 0.332031 3.25758V8.56777C0.332031 10.1852 0.934355 11.7431 2.01933 12.9568C2.53039 13.5297 3.18157 14.0062 3.97148 14.4207L6.84933 15.9294C7.02889 16.0236 7.24517 16.0235 7.42468 15.9293L10.2974 14.4215C11.0852 14.0076 11.7365 13.5301 12.2476 12.9571C13.3309 11.7443 13.932 10.1873 13.932 8.57091V3.25758C13.932 2.64436 13.5337 2.09845 12.938 1.89582L7.62453 0.0816128C7.30643 -0.0271607 6.959 -0.0271607 6.64029 0.0813518Z" fill="white"/>
<path fill-rule="evenodd" clip-rule="evenodd" d="M6.64029 0.0813518L1.32542 1.89604C0.730403 2.09845 0.332031 2.64436 0.332031 3.25758V8.56777C0.332031 10.1852 0.934355 11.7431 2.01933 12.9568C2.53039 13.5297 3.18157 14.0062 3.97148 14.4207L6.84933 15.9294C7.02889 16.0236 7.24517 16.0235 7.42468 15.9293L10.2974 14.4215C11.0852 14.0076 11.7365 13.5301 12.2476 12.9571C13.3309 11.7443 13.932 10.1873 13.932 8.57091V3.25758C13.932 2.64436 13.5337 2.09845 12.938 1.89582L7.62453 0.0816128C7.30643 -0.0271607 6.959 -0.0271607 6.64029 0.0813518ZM7.2225 1.19161L12.5371 3.00622C12.6477 3.04382 12.7209 3.14424 12.7209 3.25758V8.57091C12.7209 9.90333 12.2255 11.1866 11.3327 12.1862L11.1741 12.3542C10.7898 12.7397 10.3058 13.0794 9.7216 13.3863L7.13609 14.7426L4.54684 13.3853C3.87709 13.0338 3.34041 12.641 2.9341 12.1856C2.03962 11.185 1.54316 9.9009 1.54316 8.56777V3.25758C1.54316 3.14424 1.61645 3.04382 1.72631 3.00644L7.04134 1.1917C7.1 1.17173 7.16435 1.17173 7.2225 1.19161ZM10.1364 5.79191C9.8999 5.56214 9.51648 5.56214 9.28 5.79191L6.56051 8.43377L5.4616 7.36491L5.3937 7.30793C5.15668 7.13696 4.82025 7.15587 4.60521 7.36469C4.36866 7.5944 4.36856 7.96694 4.60498 8.19677L6.1326 9.6818L6.20052 9.7388C6.43758 9.90978 6.77408 9.89083 6.9891 9.68191L10.1364 6.62398L10.195 6.55799C10.3709 6.32766 10.3514 6.00079 10.1364 5.79191Z" fill="#E4948F"/>
</svg>
