<svg width="18" height="17" viewBox="0 0 18 17" fill="none" xmlns="http://www.w3.org/2000/svg">
<path fill-rule="evenodd" clip-rule="evenodd" d="M14.54 3.22092C14.736 3.02757 14.7377 2.71195 14.5443 2.51626C11.2366 -0.818998 5.85152 -0.841589 2.51626 2.4661C-0.818998 5.77378 -0.841589 11.1589 2.4661 14.4942C2.55945 14.5885 2.6867 14.6413 2.81926 14.641C2.95148 14.641 3.0784 14.5888 3.17209 14.4952C3.36677 14.3008 3.36677 13.9852 3.17242 13.7905C1.76808 12.3865 0.981359 10.4805 0.986674 8.49475C0.986674 4.35449 4.35483 0.986342 8.49508 0.986342C10.5031 0.980362 12.4284 1.78436 13.8353 3.21694C14.0287 3.41262 14.3443 3.41461 14.54 3.22092ZM10.2593 16.8153C14.8543 15.8418 17.7902 11.3272 16.8168 6.73209C16.6225 5.80749 16.2743 4.9221 15.7869 4.11278C15.645 3.8769 15.3387 3.80115 15.1028 3.94301C14.867 4.08488 14.7912 4.39119 14.9331 4.62708C15.3636 5.34104 15.6713 6.12211 15.843 6.93774C16.0683 8.01383 16.057 9.12614 15.8098 10.1973C15.0175 13.6159 12.0098 16.0033 8.49512 16.0033C7.60475 16.0033 6.39643 15.7119 5.59376 15.4229C5.58712 15.4202 5.58047 15.4179 5.57383 15.4156C5.31303 15.3279 5.0303 15.4684 4.94259 15.7292C4.85488 15.99 4.99542 16.2727 5.25622 16.3605C6.07549 16.6555 7.41538 17 8.49512 17C9.08815 17 9.67919 16.9382 10.2593 16.8153ZM8.49525 2.12056C12.0099 2.12056 14.8694 4.98007 14.8694 8.49474C14.8694 12.0094 12.0099 14.8689 8.49525 14.8689C7.12647 14.8706 5.79356 14.4304 4.69554 13.6131C3.07625 12.4101 2.12175 10.512 2.12108 8.49474C2.12108 4.98007 4.98059 2.12056 8.49525 2.12056ZM13.8727 8.49474C13.8727 5.52958 11.4604 3.11725 8.49525 3.11725C5.5301 3.11725 3.11777 5.52958 3.11777 8.49474C3.11512 11.4622 5.51847 13.8696 8.48595 13.8722H8.49525C11.4604 13.8722 13.8727 11.4599 13.8727 8.49474ZM8.99306 5.38437V4.74051C8.99306 4.46543 8.7698 4.24217 8.49471 4.24217C8.21963 4.24217 7.99637 4.46543 7.99637 4.74051V5.38437C8.15451 5.33986 8.32162 5.31593 8.49405 5.31593C8.66714 5.31593 8.83459 5.33986 8.99306 5.38437ZM8.91765 8.23116C8.83403 8.0971 8.68847 8.00558 8.52107 7.99669C9.52375 8.02426 10.3218 8.85284 10.3082 9.85916C10.2972 10.6824 9.74601 11.3745 8.99284 11.5977V11.1745C8.99284 10.8994 8.76962 10.6761 8.49456 10.6761V10.6762C8.30004 10.6762 8.13143 10.7878 8.04935 10.9505C8.13145 10.7879 8.30002 10.6763 8.49449 10.6763C8.76958 10.6763 8.99284 10.8996 8.99284 11.1747V11.5978V11.5979V12.1489C8.99284 12.424 8.76958 12.6473 8.49449 12.6473C8.21941 12.6473 7.99615 12.424 7.99615 12.1489V11.6039V11.6038C7.22341 11.3861 6.65699 10.6765 6.65632 9.83434C6.65632 9.55925 6.87958 9.33599 7.15467 9.33599C7.42976 9.33599 7.65302 9.55925 7.65302 9.83434C7.65302 10.2991 8.02973 10.6758 8.49449 10.6759V10.6758C8.95929 10.6758 9.33604 10.299 9.33604 9.83424C9.33604 9.37451 8.96743 9.00091 8.50961 8.99284C8.50467 8.99299 8.4997 8.99306 8.49471 8.99306H8.49405C8.2193 8.99273 7.99637 8.76947 7.99637 8.49471C7.99637 8.48292 7.99678 8.47122 7.99759 8.45963C7.99677 8.47127 7.99636 8.48302 7.99636 8.49487C7.99636 8.76962 8.21928 8.99288 8.49404 8.99321C7.47907 8.99321 6.65614 8.16994 6.6558 7.15498C6.65547 6.31219 7.22249 5.60193 7.99615 5.38458V5.38444C8.15429 5.33992 8.3214 5.316 8.49383 5.316C8.66692 5.316 8.83436 5.33992 8.99284 5.38444V5.38453C9.76594 5.6018 10.3324 6.31211 10.3327 7.15432V7.15498C10.3327 7.43007 10.1095 7.65333 9.83438 7.65333C9.55929 7.65333 9.33603 7.43007 9.33603 7.15498C9.33603 6.69019 8.95928 6.31344 8.49449 6.31344V6.31311C8.49456 6.31311 8.49464 6.31311 8.4947 6.31311V6.31344C8.02991 6.31344 7.65316 6.69019 7.65316 7.15498C7.65316 7.61649 8.02462 7.9912 8.48489 7.99646C8.48815 7.9964 8.49143 7.99637 8.49471 7.99637C8.50337 7.99637 8.51171 7.99668 8.52034 7.997L8.52036 7.997L8.52129 7.99703C8.68855 8.00591 8.834 8.09729 8.91765 8.23116ZM8.49449 6.31311C8.43061 6.31308 8.36953 6.30102 8.31339 6.27906C8.36953 6.30099 8.43062 6.31303 8.49449 6.31303C8.76958 6.31303 8.99284 6.08977 8.99284 5.81468V5.81476C8.99284 6.08985 8.76958 6.31311 8.49449 6.31311Z" fill="#3B3F45"/>
</svg>
