<svg width="15" height="14" viewBox="0 0 15 14" fill="none" xmlns="http://www.w3.org/2000/svg">
<path fill-rule="evenodd" clip-rule="evenodd" d="M2.52073 13.4105C2.71526 13.7738 3.09473 14.0007 3.50736 14C3.68126 14.0007 3.85368 13.9602 4.00842 13.8821L7.36252 12.1284C7.37136 12.1232 7.38167 12.1203 7.39199 12.121L10.7232 13.86C10.8846 13.9469 11.0651 13.9919 11.2479 13.9911C11.3061 13.9911 11.365 13.986 11.4225 13.9779C12.0223 13.8799 12.432 13.3184 12.3436 12.7179L11.6951 9.0263C11.6914 9.02093 11.6904 9.02065 11.6901 9.02004C11.69 9.01981 11.69 9.01953 11.69 9.01893C11.69 9.01672 11.6951 9.01157 11.6951 9.01157L14.3993 6.39578C14.7987 6.01041 14.8496 5.38926 14.5172 4.9442C14.3367 4.71136 14.0722 4.5581 13.7804 4.51684L10.0505 3.97894C10.0439 3.97894 10.0365 3.97157 10.0291 3.9642L8.36315 0.618946C8.17525 0.240947 7.79062 0.00221052 7.36841 0C7.2461 0 7.12378 0.0191579 7.00736 0.0589473C6.7281 0.154 6.49747 0.354421 6.36631 0.618946L4.70252 3.95463C4.70252 3.9701 4.68705 3.97673 4.67231 3.97673L0.951262 4.51463C0.723578 4.55294 0.511368 4.65462 0.339684 4.80936C0.122316 5.02231 0 5.31483 0 5.61989C0.000736841 5.90946 0.117158 6.18652 0.32421 6.38841L3.05052 9.01157C3.05642 9.01746 3.05863 9.02557 3.05863 9.03367L2.4021 12.7105C2.36305 12.9507 2.40505 13.1968 2.52073 13.4105ZM7.34703 1.08084L7.3544 1.07569H7.3684L7.37503 1.08232C7.38166 1.08232 7.38755 1.08379 7.39271 1.08821C7.39713 1.09263 7.39934 1.09853 7.39861 1.10516L9.06387 4.43495C9.22376 4.76284 9.53471 4.99126 9.89576 5.04652L13.6257 5.58884C13.6323 5.58884 13.6389 5.59031 13.6448 5.59326C13.6485 5.594 13.6514 5.594 13.6551 5.59326L13.6625 5.59989L13.6551 5.6161L10.9509 8.23852C10.682 8.49052 10.5619 8.86336 10.6333 9.22515L11.2825 12.8954L11.2678 12.9094H11.2523C11.2493 12.9108 11.2464 12.9108 11.2434 12.9094C11.2361 12.9086 11.2287 12.9057 11.2221 12.902H11.2154L7.89966 11.1704C7.7405 11.0879 7.56366 11.0437 7.38387 11.0444C7.19892 11.0444 7.01619 11.0908 6.85261 11.1778L3.51545 12.9278C3.51177 12.9285 3.50735 12.9285 3.50366 12.9278C3.48819 12.9278 3.47493 12.9175 3.47124 12.9027V12.888L4.11966 9.21852C4.18008 8.85968 4.06219 8.49347 3.80282 8.23852L1.07651 5.62273C1.07577 5.61168 1.07725 5.6021 1.08314 5.59252L1.12809 5.57779L4.8344 5.04652C5.19545 4.99052 5.50566 4.76284 5.66629 4.43495L7.33229 1.09706C7.33597 1.09042 7.3404 1.08453 7.34703 1.08084Z" fill="current"/>
</svg>
