<svg width="12" height="12" viewBox="0 0 12 12" fill="none" xmlns="http://www.w3.org/2000/svg">
<path d="M2.8561 12C2.52009 12.0006 2.21108 11.8061 2.05267 11.4947C1.95847 11.3116 1.92427 11.1006 1.95607 10.8947L2.49068 7.74315C2.49068 7.7362 2.48888 7.72925 2.48408 7.7242L0.264009 5.47578C0.0954033 5.30273 0.000600021 5.06526 0 4.81705C0 4.55557 0.0996034 4.30484 0.276609 4.12231C0.416414 3.98968 0.58922 3.90252 0.774626 3.86968L3.80473 3.40863C3.81673 3.40863 3.82933 3.40294 3.82933 3.38968L5.18418 0.530526C5.29098 0.303789 5.47879 0.132 5.70619 0.0505262C5.801 0.016421 5.9006 0 6.0002 0C6.34402 0.00189473 6.65723 0.206526 6.81023 0.530526L8.16688 3.39789C8.17288 3.40421 8.17888 3.41052 8.18428 3.41052L11.2216 3.87157C11.4592 3.90694 11.6746 4.03831 11.8216 4.23789C12.0922 4.61936 12.0508 5.15178 11.7256 5.4821L9.52352 7.7242C9.52352 7.7242 9.51932 7.72862 9.51932 7.73052C9.51932 7.73241 9.51932 7.73052 9.52352 7.73683L10.0515 10.901C10.1235 11.4158 9.78993 11.897 9.30152 11.981C9.25472 11.988 9.20671 11.9924 9.15931 11.9924C9.01051 11.993 8.8635 11.9545 8.7321 11.88L6.0194 10.3895C6.011 10.3888 6.0026 10.3914 5.9954 10.3958L3.26411 11.8989C3.13811 11.9659 2.9977 12.0006 2.8561 12Z" fill="#FFAB00"/>
</svg>
