<svg width="20" height="20" viewBox="0 0 20 20" fill="none" xmlns="http://www.w3.org/2000/svg">
<path fill-rule="evenodd" clip-rule="evenodd" d="M10 3.05469C10.3236 3.05469 10.5859 2.79234 10.5859 2.46875V0.585938C10.5859 0.262344 10.3236 0 10 0C9.67641 0 9.41406 0.262344 9.41406 0.585938V2.46875C9.41406 2.79234 9.67641 3.05469 10 3.05469ZM10 16.9453C9.67641 16.9453 9.41406 17.2077 9.41406 17.5312V19.4141C9.41406 19.7377 9.67641 20 10 20C10.3236 20 10.5859 19.7377 10.5859 19.4141V17.5312C10.5859 17.2077 10.3236 16.9453 10 16.9453ZM17.5312 9.41406H19.4141C19.7377 9.41406 20 9.67641 20 10C20 10.3236 19.7377 10.5859 19.4141 10.5859H17.5312C17.2077 10.5859 16.9453 10.3236 16.9453 10C16.9453 9.67641 17.2077 9.41406 17.5312 9.41406ZM3.05469 10C3.05469 9.67641 2.79234 9.41406 2.46875 9.41406H0.585938C0.262344 9.41406 0 9.67641 0 10C0 10.3236 0.262344 10.5859 0.585938 10.5859H2.46875C2.79234 10.5859 3.05469 10.3236 3.05469 10ZM17.0711 3.75758L15.74 5.08871C15.5112 5.31762 15.1401 5.3175 14.9114 5.08871C14.6825 4.85988 14.6825 4.48891 14.9114 4.26008L16.2425 2.92895C16.4713 2.70012 16.8423 2.70012 17.0711 2.92895C17.2999 3.15777 17.2999 3.52875 17.0711 3.75758ZM4.26008 14.9113L2.92895 16.2424C2.70012 16.4712 2.70012 16.8422 2.92895 17.071C3.1577 17.2998 3.52875 17.2999 3.75758 17.071L5.08871 15.7399C5.31754 15.5111 5.31754 15.1401 5.08871 14.9113C4.85988 14.6824 4.48887 14.6824 4.26008 14.9113ZM14.9114 14.9112C15.1402 14.6824 15.5112 14.6824 15.74 14.9112L17.0711 16.2424C17.2999 16.4712 17.2999 16.8422 17.0711 17.071C16.8423 17.2999 16.4712 17.2998 16.2425 17.071L14.9114 15.7399C14.6825 15.511 14.6825 15.1401 14.9114 14.9112ZM4.26011 5.08872C4.48886 5.31751 4.85992 5.31759 5.08874 5.08872C5.31757 4.85989 5.31757 4.48891 5.08874 4.26008L3.75758 2.92895C3.52879 2.70012 3.15777 2.70012 2.92894 2.92895C2.70012 3.15777 2.70012 3.52875 2.92894 3.75758L4.26011 5.08872ZM5.021 10C5.021 7.25454 7.25466 5.02087 10.0002 5.02087C12.7457 5.02087 14.9793 7.25454 14.9793 10C14.9793 12.7456 12.7457 14.9792 10.0002 14.9792C7.25466 14.9792 5.021 12.7456 5.021 10ZM6.19287 10C6.19287 12.0994 7.90084 13.8073 10.0002 13.8073C12.0995 13.8073 13.8075 12.0994 13.8075 10C13.8075 7.90071 12.0995 6.19275 10.0002 6.19275C7.90084 6.19275 6.19287 7.90071 6.19287 10Z" fill="current"/>
</svg>
