<svg width="15" height="18" viewBox="0 0 15 18" fill="none" xmlns="http://www.w3.org/2000/svg">
<path fill-rule="evenodd" clip-rule="evenodd" d="M9.7558 0.677716C9.71992 0.671311 9.68297 0.667969 9.64525 0.667969C9.60753 0.667969 9.57058 0.671311 9.5347 0.677716H4.32C2.24725 0.677716 0.5 2.35924 0.5 4.41022V13.3377C0.5 15.5049 2.1705 17.2219 4.32 17.2219H10.9775C13.0219 17.2219 14.71 15.4203 14.71 13.3377V5.69938C14.71 5.53804 14.6476 5.38294 14.5359 5.26655L10.315 0.869881C10.1972 0.747114 10.0343 0.677716 9.86417 0.677716H9.7558ZM9.02025 1.92704L4.32 1.92771C2.92711 1.92771 1.75 3.06054 1.75 4.41021V13.3377C1.75 14.8221 2.86866 15.9719 4.32 15.9719H10.9775C12.3127 15.9719 13.46 14.7474 13.46 13.3377L13.4595 6.48721L12.7299 6.48969C12.4519 6.48936 12.1356 6.48877 11.7839 6.48797C10.3093 6.48485 9.10587 5.32904 9.02462 3.87412L9.02025 3.71713V1.92704ZM12.7754 5.23783L11.7867 5.23797C10.9488 5.2362 10.2703 4.55585 10.2703 3.71713V2.62833L12.7754 5.23783ZM9.48691 11.341C9.83209 11.341 10.1119 11.6208 10.1119 11.966C10.1119 12.2824 9.87678 12.5439 9.57172 12.5853L9.48691 12.591H4.98941C4.64423 12.591 4.36441 12.3111 4.36441 11.966C4.36441 11.6496 4.59954 11.3881 4.9046 11.3467L4.98941 11.341H9.48691ZM8.41067 7.83915C8.41067 7.49397 8.13085 7.21415 7.78567 7.21415H4.989L4.90419 7.21985C4.59913 7.26124 4.364 7.52273 4.364 7.83915C4.364 8.18432 4.64383 8.46415 4.989 8.46415H7.78567L7.87048 8.45844C8.17554 8.41705 8.41067 8.15556 8.41067 7.83915Z" fill="#3B3F45"/>
</svg>
