<svg width="17" height="17" viewBox="0 0 17 17" fill="none" xmlns="http://www.w3.org/2000/svg">
<path fill-rule="evenodd" clip-rule="evenodd" d="M12.1839 0H4.81525C1.92731 0 0 2.06771 0 5.0286V11.9714C0 14.9351 1.92216 17 4.81525 17H12.1831C15.077 17 17 14.9351 17 11.9714V5.0286C17 2.06508 15.0771 0 12.1839 0ZM4.81488 1.27463H12.1835C14.3515 1.27463 15.7246 2.74935 15.7246 5.02823V11.971C15.7246 14.25 14.3514 15.7246 12.1827 15.7246H4.81488C2.64718 15.7246 1.27463 14.2502 1.27463 11.971V5.02823C1.27463 2.75225 2.65192 1.27463 4.81488 1.27463ZM11.9759 6.03139C11.727 5.78243 11.3233 5.78243 11.0744 6.03139L7.4903 9.61425L5.92385 8.04835L5.85234 7.98664C5.60273 7.80151 5.24857 7.82216 5.02229 8.04854C4.77338 8.29755 4.77347 8.70119 5.02248 8.9501L7.04038 10.9671L7.11188 11.0288C7.36145 11.214 7.71555 11.1933 7.94185 10.9671L11.9759 6.93295L12.0377 6.86145C12.2228 6.61188 12.2023 6.25772 11.9759 6.03139Z" fill="current"/>
</svg>
