<svg width="17" height="17" viewBox="0 0 17 17" fill="none" xmlns="http://www.w3.org/2000/svg">
<path fill-rule="evenodd" clip-rule="evenodd" d="M8.5 0C3.81972 0 0 3.82002 0 8.5C0 13.1803 3.82002 17 8.5 17C13.1803 17 17 13.18 17 8.5C17 3.81972 13.18 0 8.5 0ZM8.5 16.0039C4.36233 16.0039 0.996094 12.6377 0.996094 8.5C0.996094 4.36233 4.36233 0.996094 8.5 0.996094C12.6377 0.996094 16.0039 4.36233 16.0039 8.5C16.0039 12.6377 12.6377 16.0039 8.5 16.0039ZM10.0018 6.43307L8.94671 4.29519C8.86281 4.12519 8.68965 4.01758 8.5001 4.01758C8.31054 4.01758 8.13739 4.12522 8.05348 4.29519L6.99838 6.43307L4.6391 6.77589C4.45151 6.80315 4.29562 6.93457 4.23705 7.11487C4.17844 7.29516 4.22732 7.49308 4.36305 7.6254L6.07026 9.2895L5.66724 11.6393C5.6352 11.8261 5.712 12.0149 5.86536 12.1264C6.01876 12.2378 6.22206 12.2525 6.38987 12.1643L8.5001 11.0548L10.6103 12.1642C10.7791 12.253 10.9823 12.2371 11.1348 12.1263C11.2882 12.0149 11.365 11.8261 11.3329 11.6392L10.9299 9.28944L12.6371 7.62533C12.7728 7.49302 12.8217 7.29509 12.7631 7.1148C12.7045 6.93451 12.5487 6.80309 12.3611 6.77583L10.0018 6.43307ZM10.0471 8.75895C9.92976 8.87337 9.8762 9.03822 9.90389 9.19979L10.1806 10.813L8.73185 10.0513C8.65931 10.0132 8.57968 9.99414 8.5001 9.99414C8.42051 9.99414 8.34089 10.0132 8.26834 10.0513L6.81962 10.813L7.0963 9.19979C7.12399 9.03822 7.07044 8.87337 6.95306 8.75895L5.78103 7.6165L7.40074 7.38115C7.56297 7.35758 7.70319 7.25568 7.77574 7.10869L8.5001 5.64098L9.22446 7.10869C9.297 7.25568 9.43725 7.35758 9.59945 7.38115L11.2192 7.6165L10.0471 8.75895ZM1.99219 8.5C1.99219 4.92578 4.92608 1.99219 8.5 1.99219C12.0742 1.99219 15.0078 4.92608 15.0078 8.5C15.0078 12.0742 12.0739 15.0078 8.5 15.0078C4.92578 15.0078 1.99219 12.0739 1.99219 8.5ZM2.98828 8.5C2.98828 11.5392 5.46082 14.0117 8.5 14.0117C11.5392 14.0117 14.0117 11.5392 14.0117 8.5C14.0117 5.46082 11.5392 2.98828 8.5 2.98828C5.46082 2.98828 2.98828 5.46082 2.98828 8.5Z" fill="#3B3F45"/>
</svg>
