<svg width="40" height="40" viewBox="0 0 40 40" fill="none" xmlns="http://www.w3.org/2000/svg">
<path d="M39.3975 24.8385C36.7263 35.5529 25.8738 42.0729 15.1582 39.4016C4.44755 36.7304 -2.07308 25.8779 0.598797 15.1641C3.2688 4.4485 14.1207 -2.07275 24.8332 0.598497C35.5482 3.26975 42.0682 14.1235 39.3969 24.8385H39.3975Z" fill="#E2415D" fill-opacity="0.1"/>
<path d="M23.75 29C21.2045 29 18.5 28.211 18.5 26.75C18.5 26.543 18.668 26.375 18.875 26.375C19.082 26.375 19.25 26.543 19.25 26.75C19.25 27.3762 20.9615 28.25 23.75 28.25C26.5385 28.25 28.25 27.3762 28.25 26.75C28.25 26.543 28.418 26.375 28.625 26.375C28.832 26.375 29 26.543 29 26.75C29 28.211 26.2955 29 23.75 29Z" fill="#FF5910"/>
<path d="M23.75 26.75C21.2045 26.75 18.5 25.961 18.5 24.5C18.5 24.293 18.668 24.125 18.875 24.125C19.082 24.125 19.25 24.293 19.25 24.5C19.25 25.1262 20.9615 26 23.75 26C26.5385 26 28.25 25.1262 28.25 24.5C28.25 24.293 28.418 24.125 28.625 24.125C28.832 24.125 29 24.293 29 24.5C29 25.961 26.2955 26.75 23.75 26.75Z" fill="#FF5910"/>
<path d="M23.75 24.5C21.2045 24.5 18.5 23.711 18.5 22.25C18.5 20.789 21.2045 20 23.75 20C26.2955 20 29 20.789 29 22.25C29 23.711 26.2955 24.5 23.75 24.5ZM23.75 20.75C20.9615 20.75 19.25 21.6237 19.25 22.25C19.25 22.8763 20.9615 23.75 23.75 23.75C26.5385 23.75 28.25 22.8763 28.25 22.25C28.25 21.6237 26.5385 20.75 23.75 20.75Z" fill="#FF5910"/>
<path d="M28.625 27.125C28.418 27.125 28.25 26.957 28.25 26.75V22.25C28.25 22.043 28.418 21.875 28.625 21.875C28.832 21.875 29 22.043 29 22.25V26.75C29 26.957 28.832 27.125 28.625 27.125Z" fill="#FF5910"/>
<path d="M18.875 27.125C18.668 27.125 18.5 26.957 18.5 26.75V22.25C18.5 22.043 18.668 21.875 18.875 21.875C19.082 21.875 19.25 22.043 19.25 22.25V26.75C19.25 26.957 19.082 27.125 18.875 27.125Z" fill="#FF5910"/>
<path d="M16.25 20C13.7045 20 11 19.211 11 17.75C11 17.543 11.168 17.375 11.375 17.375C11.582 17.375 11.75 17.543 11.75 17.75C11.75 18.3762 13.4615 19.25 16.25 19.25C19.0385 19.25 20.75 18.3762 20.75 17.75C20.75 17.543 20.918 17.375 21.125 17.375C21.332 17.375 21.5 17.543 21.5 17.75C21.5 19.211 18.7955 20 16.25 20Z" fill="#FF5910"/>
<path d="M16.25 17.75C13.7045 17.75 11 16.961 11 15.5C11 15.293 11.168 15.125 11.375 15.125C11.582 15.125 11.75 15.293 11.75 15.5C11.75 16.1263 13.4615 17 16.25 17C19.0385 17 20.75 16.1263 20.75 15.5C20.75 15.293 20.918 15.125 21.125 15.125C21.332 15.125 21.5 15.293 21.5 15.5C21.5 16.961 18.7955 17.75 16.25 17.75Z" fill="#FF5910"/>
<path d="M16.25 24.5C13.7045 24.5 11 23.711 11 22.25C11 22.043 11.168 21.875 11.375 21.875C11.582 21.875 11.75 22.043 11.75 22.25C11.75 22.8762 13.4615 23.75 16.25 23.75C16.658 23.75 17.0135 23.7335 17.3352 23.6997C17.5385 23.6772 17.726 23.8272 17.7477 24.0327C17.7695 24.2382 17.6203 24.4235 17.4148 24.4452C17.0653 24.4827 16.6842 24.5 16.25 24.5Z" fill="#FF5910"/>
<path d="M16.25 26.75C13.7045 26.75 11 25.961 11 24.5C11 24.293 11.168 24.125 11.375 24.125C11.582 24.125 11.75 24.293 11.75 24.5C11.75 25.1262 13.4615 26 16.25 26C16.658 26 17.0135 25.9835 17.3352 25.9497C17.5385 25.9235 17.726 26.0772 17.7477 26.2827C17.7695 26.4882 17.6203 26.6735 17.4148 26.6952C17.0653 26.7327 16.6842 26.75 16.25 26.75Z" fill="#FF5910"/>
<path d="M16.25 22.25C13.7045 22.25 11 21.461 11 20C11 19.793 11.168 19.625 11.375 19.625C11.582 19.625 11.75 19.793 11.75 20C11.75 20.6262 13.4615 21.5 16.25 21.5C16.658 21.5 17.0135 21.4835 17.3352 21.4497C17.5385 21.4257 17.726 21.5765 17.7477 21.7827C17.7695 21.9882 17.6203 22.1735 17.4148 22.1952C17.0653 22.2327 16.6842 22.25 16.25 22.25Z" fill="#FF5910"/>
<path d="M16.25 15.5C13.7045 15.5 11 14.711 11 13.25C11 11.789 13.7045 11 16.25 11C18.7955 11 21.5 11.789 21.5 13.25C21.5 14.711 18.7955 15.5 16.25 15.5ZM16.25 11.75C13.4615 11.75 11.75 12.6237 11.75 13.25C11.75 13.8763 13.4615 14.75 16.25 14.75C19.0385 14.75 20.75 13.8763 20.75 13.25C20.75 12.6237 19.0385 11.75 16.25 11.75Z" fill="#FF5910"/>
<path d="M11.375 24.875C11.168 24.875 11 24.707 11 24.5V13.25C11 13.043 11.168 12.875 11.375 12.875C11.582 12.875 11.75 13.043 11.75 13.25V24.5C11.75 24.707 11.582 24.875 11.375 24.875Z" fill="#FF5910"/>
<path d="M21.125 18.125C20.918 18.125 20.75 17.957 20.75 17.75V13.25C20.75 13.043 20.918 12.875 21.125 12.875C21.332 12.875 21.5 13.043 21.5 13.25V17.75C21.5 17.957 21.332 18.125 21.125 18.125Z" fill="#FF5910"/>
</svg>
