<svg width="17" height="16" viewBox="0 0 17 16" fill="none" xmlns="http://www.w3.org/2000/svg">
<path fill-rule="evenodd" clip-rule="evenodd" d="M4.84337 0H11.8233C14.4982 0 16.6667 2.21763 16.6667 4.95312V5.57167L16.6668 5.58535L16.6667 5.59904V10.0168L16.6668 10.0305L16.6667 10.0442V10.8802C16.6667 13.6157 14.4982 15.8333 11.8233 15.8333H4.84337C2.16849 15.8333 0 13.6157 0 10.8802V4.95312C0 2.21763 2.16849 0 4.84337 0ZM15.4553 4.95311V4.96597H12.792L12.6395 4.97027C11.1751 5.05204 10.0123 6.29095 10.0123 7.80792C10.0132 9.37756 11.257 10.6489 12.7916 10.6499H15.4553V10.8802C15.4553 12.9315 13.8292 14.5946 11.8233 14.5946H4.84337C2.83748 14.5946 1.21131 12.9315 1.21131 10.8802V4.95311C1.21131 2.90177 2.83748 1.23875 4.84337 1.23875H11.8233C13.8292 1.23875 15.4553 2.90177 15.4553 4.95311ZM15.4553 6.20473V9.4111H12.792L12.6694 9.40621C11.8607 9.34185 11.2241 8.65095 11.2236 7.80754C11.2236 6.92286 11.9258 6.20528 12.7924 6.20473H15.4553ZM13.7675 7.75703C13.7675 7.41495 13.4963 7.13765 13.1618 7.13765H12.9101L12.8279 7.1433C12.5323 7.18432 12.3044 7.44346 12.3044 7.75703C12.3044 8.0991 12.5756 8.37641 12.9101 8.37641H13.1618L13.244 8.37076C13.5396 8.32974 13.7675 8.0706 13.7675 7.75703ZM9.23389 4.36719C9.23389 4.02512 8.96273 3.74781 8.62824 3.74781H4.26835L4.18617 3.75347C3.89055 3.79448 3.6627 4.05363 3.6627 4.36719C3.6627 4.70927 3.93386 4.98657 4.26835 4.98657H8.62824L8.71042 4.98092C9.00604 4.93991 9.23389 4.68076 9.23389 4.36719Z" fill="white"/>
</svg>
