<svg width="17" height="17" viewBox="0 0 17 17" fill="none" xmlns="http://www.w3.org/2000/svg">
<path fill-rule="evenodd" clip-rule="evenodd" d="M12.1839 0H4.81525C1.92731 0 0 2.06771 0 5.0286V11.9714C0 14.9351 1.92216 17 4.81525 17H12.1831C15.077 17 17 14.9351 17 11.9714V5.0286C17 2.06508 15.0771 0 12.1839 0ZM4.81488 1.27441H12.1835C14.3515 1.27441 15.7246 2.74913 15.7246 5.02801V11.9708C15.7246 14.2498 14.3514 15.7244 12.1827 15.7244H4.81488C2.64718 15.7244 1.27463 14.2499 1.27463 11.9708V5.02801C1.27463 2.75203 2.65192 1.27441 4.81488 1.27441ZM12.1342 5.55836L9.19221 8.50049L12.1342 11.4426C12.3257 11.634 12.3257 11.9434 12.1342 12.1348C12.0387 12.2303 11.9134 12.2782 11.7881 12.2782C11.6628 12.2782 11.5375 12.2303 11.442 12.1348L8.49997 9.19266L5.55798 12.1348C5.46252 12.2303 5.33721 12.2782 5.2119 12.2782C5.08659 12.2782 4.96119 12.2303 4.86582 12.1348C4.67436 11.9434 4.67436 11.634 4.86582 11.4426L7.80781 8.50049L4.86582 5.55836C4.67436 5.36698 4.67436 5.05756 4.86582 4.86619C5.05719 4.67481 5.36652 4.67481 5.55798 4.86619L8.49997 7.80832L11.442 4.86619C11.6334 4.67481 11.9428 4.67481 12.1342 4.86619C12.3257 5.05756 12.3257 5.36698 12.1342 5.55836Z" fill="#3B3F45"/>
</svg>
